<?xml version="1.0" standalone="no"?>
<!DOCTYPE svg PUBLIC "-//W3C//DTD SVG 1.1//EN" "http://www.w3.org/Graphics/SVG/1.1/DTD/svg11.dtd" >
<svg xmlns="http://www.w3.org/2000/svg">
<metadata>Generated by IcoMoon</metadata>
<defs>
<font id="pe-icon-7-combo" horiz-adv-x="1024">
<font-face units-per-em="1024" ascent="960" descent="-64" />
<missing-glyph horiz-adv-x="1024" />
<glyph unicode="&#x20;" horiz-adv-x="512" d="" />
<glyph unicode="&#xe600;" glyph-name="wind" horiz-adv-x="820" d="M410.028 414.498h-341.69c-18.834 0-34.168 15.33-34.168 34.168s15.334 34.17 34.168 34.17h68.338v34.168h-68.338c-37.738 0-68.338-30.598-68.338-68.338s30.6-68.336 68.338-68.336h341.69c37.672 0 68.336-30.652 68.336-68.34 0-37.69-30.664-68.336-68.336-68.336v-34.174c56.624 0 102.504 45.882 102.504 102.51 0.004 56.608-45.88 102.508-102.504 102.508zM444.2 687.85v-34.168c37.672 0 68.336-30.65 68.336-68.338s-30.664-68.338-68.336-68.338h-273.154v-34.168h273.154c56.624 0 102.504 45.896 102.504 102.506 0 56.624-45.88 102.506-102.504 102.506zM546.704 482.836v-34.17h93.964v0.87c43.114 4.338 76.882 40.292 76.882 84.554 0 47.184-38.242 85.424-85.428 85.424v-34.17c28.266 0 51.254-22.99 51.254-51.254 0-28.262-22.988-51.252-51.254-51.252-0.728 0-1.418 0.184-2.146 0.216h-83.070c0.046-0.084 0.148-0.15 0.2-0.216l-0.402-0.002zM734.634 414.498h-187.93v-34.168h119.974c-0.066-0.070-0.13-0.134-0.182-0.216h65.986c0.73 0.032 1.416 0.216 2.15 0.216 28.264 0 51.254-22.994 51.254-51.256 0-28.266-22.99-51.252-51.254-51.252v-34.168c47.182 0 85.424 38.236 85.424 85.42 0 47.18-38.242 85.424-85.422 85.424z" />
<glyph unicode="&#xe601;" glyph-name="500px" d="M339.2 454.4c8 19.2 16 35.2 28.8 49.6 27.2 32 62.4 49.6 105.6 52.8 59.2 4.8 107.2-17.6 150.4-56 17.6-16 33.6-33.6 48-52.8 3.2-3.2 4.8-4.8 8 0 19.2 24 40 46.4 64 65.6 27.2 22.4 59.2 38.4 94.4 41.6 88 9.6 161.6-38.4 180.8-129.6 8-38.4 4.8-76.8-8-113.6-24-68.8-81.6-107.2-153.6-107.2-44.8 0-81.6 17.6-116.8 43.2-22.4 17.6-41.6 36.8-60.8 59.2-3.2 3.2-4.8 4.8-8 0-19.2-19.2-36.8-40-57.6-57.6-27.2-22.4-56-38.4-91.2-43.2-62.4-8-115.2 8-156.8 56-9.6 11.2-16 24-22.4 36.8 0 1.6-3.2 4.8-3.2 4.8-8-17.6-17.6-33.6-32-48-33.6-35.2-73.6-54.4-123.2-56-35.2-1.6-68.8 3.2-100.8 17.6-52.8 25.6-83.2 67.2-86.4 126.4 0 4.8 1.6 6.4 4.8 6.4h86.4c4.8 0 4.8-1.6 6.4-4.8 4.8-32 22.4-56 56-64 46.4-11.2 88 14.4 100.8 62.4 8 32 4.8 62.4-16 89.6-14.4 17.6-33.6 25.6-56 27.2-32 1.6-59.2-8-78.4-35.2-1.6-3.2-3.2-3.2-6.4-3.2-25.6 0-51.2 0-78.4 0-1.6 4.8-3.2 6.4-1.6 9.6 12.8 75.2 27.2 148.8 40 224 1.6 9.6 3.2 20.8 4.8 30.4 0 3.2 1.6 4.8 4.8 4.8 86.4 0 171.2 0 257.6 0 4.8 0 4.8-1.6 4.8-4.8v-68.8c0-4.8-1.6-6.4-6.4-6.4-60.8 0-123.2 0-184 0-4.8 0-8 0-8-6.4-4.8-32-11.2-65.6-17.6-97.6 0-1.6-1.6-3.2 0-4.8s3.2 1.6 3.2 1.6c28.8 27.2 62.4 35.2 100.8 33.6 36.8-1.6 67.2-16 92.8-41.6 11.2-11.2 19.2-24 25.6-36.8 3.2-1.6 4.8-3.2 4.8-4.8zM934.4 384c0 3.2 0 8-1.6 12.8-4.8 43.2-41.6 72-84.8 65.6-22.4-3.2-41.6-14.4-59.2-27.2-19.2-16-36.8-35.2-52.8-52.8-1.6-1.6-1.6-3.2 0-4.8 11.2-12.8 24-27.2 38.4-38.4 24-19.2 48-33.6 78.4-35.2 35.2-3.2 62.4 12.8 75.2 44.8 4.8 9.6 6.4 20.8 6.4 35.2zM417.6 379.2c0-1.6 0-6.4 0-9.6 3.2-33.6 25.6-59.2 57.6-65.6 17.6-3.2 35.2-1.6 52.8 6.4 36.8 14.4 64 40 88 67.2 1.6 1.6 1.6 3.2 0 4.8-17.6 19.2-36.8 36.8-57.6 52.8-14.4 11.2-30.4 20.8-48 24-27.2 6.4-51.2 3.2-72-19.2-12.8-16-20.8-36.8-20.8-60.8z" />
<glyph unicode="&#xe602;" glyph-name="aim" horiz-adv-x="896" d="M600 659.2c83.2 0 150.4 67.2 150.4 150.4s-67.2 150.4-150.4 150.4c-83.2 0-150.4-67.2-150.4-150.4s67.2-150.4 150.4-150.4zM552 425.6c240-14.4 344 27.2 344 27.2l-22.4 142.4c0 0-280-92.8-408 67.2-6.4 1.6-16-6.4-16-6.4-132.8-115.2-67.2-433.6-449.6-452.8 4.8-67.2 19.2-168 19.2-168s300.8 33.6 424 200c156.8-136 248-299.2 248-299.2l139.2 73.6c0 0-84.8 238.4-278.4 416z" />
<glyph unicode="&#xe603;" glyph-name="wind-sun" horiz-adv-x="957" d="M426.994 892.864h34.17v-170.844h-34.17v170.844zM0 465.75h170.728v-34.168h-170.728v34.168zM644.4 625.012l-24.157 24.157 125.737 125.737 24.157-24.157-125.737-125.737zM243.654 624.934l-125.745 125.745 24.159 24.159 125.745-125.745-24.159-24.159zM512.426 209.48h-410.036v-34.166h410.038c37.676 0 68.336-30.646 68.336-68.34 0-37.69-30.66-68.336-68.336-68.336v-34.168c56.624 0 102.508 45.878 102.508 102.504-0.004 56.612-45.884 102.506-102.51 102.506zM717.838 277.822h-0.4v-34.168h93.96v0.864c43.116 4.342 76.882 40.296 76.882 84.556 0 47.18-38.24 85.424-85.422 85.424v-34.168c28.262 0 51.252-22.994 51.252-51.256 0-28.264-22.99-51.252-51.252-51.252-0.734 0-1.436 0.184-2.168 0.212h-83.054c0.036-0.076 0.136-0.148 0.202-0.212zM871.2 209.48h-222.098v-34.166h154.124c-0.066-0.066-0.132-0.132-0.168-0.218h65.968c0.734 0.038 1.434 0.218 2.17 0.218 28.264 0 51.254-22.988 51.254-51.252 0-28.262-22.99-51.254-51.254-51.254v-34.17c47.182 0 85.422 38.236 85.422 85.424 0.004 47.182-38.236 85.418-85.418 85.418zM302.432 277.822h-200.042v-34.168h478.372c56.624 0 102.508 45.896 102.508 102.502 0 56.628-45.88 102.51-102.508 102.51v-34.168c37.674 0 68.342-30.65 68.342-68.342 0-37.688-30.668-68.334-68.34-68.334h-214.216c-64.952 29.63-110.282 95.034-110.282 170.96 0 103.61 84.304 187.914 187.93 187.914 91.984 0 168.6-66.47 184.684-153.86h34.538c-16.416 106.444-108.178 188.028-219.218 188.028-122.662 0-222.098-99.42-222.098-222.082-0.004-68.772 31.262-130.216 80.33-170.96z" />
<glyph unicode="&#xe604;" glyph-name="amazon" horiz-adv-x="992" d="M571.2 660.8c-110.4-3.2-387.2-35.2-387.2-268.8 0-249.6 315.2-260.8 419.2-99.2 3.2-6.4 8-12.8 14.4-19.2 38.4-40 89.6-88 89.6-88l129.6 128c0 0-73.6 57.6-73.6 120s0 278.4 0 336c0 57.6-56 188.8-256 188.8-201.6 1.6-308.8-123.2-308.8-236.8l168-14.4c0 0 36.8 113.6 124.8 113.6s81.6-70.4 81.6-84.8c-1.6-6.4-1.6-35.2-1.6-75.2zM571.2 462.4c0-184-192-155.2-192-40 0 107.2 115.2 129.6 192 131.2 0-30.4 0-62.4 0-91.2zM870.4 116.8c-422.4-200-683.2-32-851.2 68.8-9.6 6.4-28.8-1.6-12.8-19.2 56-67.2 238.4-230.4 476.8-230.4s380.8 131.2 398.4 153.6c19.2 22.4 6.4 35.2-11.2 27.2zM988.8 182.4c-11.2 14.4-68.8 17.6-105.6 12.8s-91.2-27.2-86.4-40c1.6-4.8 8-3.2 32 0 25.6 3.2 94.4 11.2 110.4-8 14.4-19.2-22.4-110.4-28.8-124.8s3.2-19.2 14.4-8c12.8 9.6 33.6 35.2 48 72 16 33.6 24 84.8 16 96z" />
<glyph unicode="&#xe605;" glyph-name="wind-moon" horiz-adv-x="854" d="M410.026 320.4h-410.026v-34.17h410.028c37.672 0 68.34-30.65 68.34-68.34 0-37.688-30.668-68.336-68.34-68.336v-34.172c56.626 0 102.504 45.88 102.504 102.508 0 56.61-45.88 102.51-102.506 102.51zM709.006 354.568v0.868c43.112 4.342 76.876 40.292 76.876 84.554 0 47.184-38.234 85.424-85.422 85.424v-34.168c28.264 0 51.254-22.992 51.254-51.254s-22.99-51.256-51.254-51.256c-0.732 0-1.416 0.188-2.15 0.216h-83.068c0.066-0.082 0.15-0.148 0.202-0.216h-0.4v-34.166l93.962-0.002zM768.8 320.4h-222.096v-34.17h154.142c-0.050-0.070-0.118-0.136-0.186-0.216h65.988c0.73 0.034 1.418 0.216 2.148 0.216 28.266 0 51.256-22.992 51.256-51.254 0-28.266-22.99-51.254-51.256-51.254v-34.168c47.186 0 85.426 38.238 85.426 85.422 0 47.18-38.24 85.424-85.422 85.424zM219.26 354.568h259.104c56.624 0 102.508 45.896 102.508 102.508 0 56.626-45.882 102.506-102.508 102.506v-34.168c37.672 0 68.336-30.65 68.336-68.338 0-37.694-30.664-68.342-68.336-68.342h-215.024c-44.344 20.292-79.584 57.042-97.216 103.094 14.498-3.486 29.448-5.272 44.63-5.272 105.376 0 191.116 85.738 191.116 191.132 0 21.806-3.754 43.262-10.928 63.498 69.122-18.818 122.462-76.178 135.594-147.436h34.464c-16.464 106.562-108.278 188.196-219.46 188.196-4.42 0-8.726-0.416-13.082-0.666 24.342-27.644 39.242-63.85 39.242-103.59 0-86.658-70.256-156.964-156.946-156.964-33.968 0-65.37 10.946-91.062 29.296 2.77-64.932 33.518-122.408 80.286-161.288h-199.978v-34.166h219.26z" />
<glyph unicode="&#xe606;" glyph-name="android" horiz-adv-x="864" d="M569.6 865.6l44.8 80c3.2 4.8 1.6 9.6-3.2 12.8-3.2 3.2-9.6 1.6-11.2-3.2l-46.4-81.6c-36.8 16-78.4 24-121.6 24s-84.8-8-121.6-24l-46.4 81.6c-1.6 4.8-8 6.4-12.8 3.2s-6.4-8-3.2-12.8l44.8-80c-88-43.2-147.2-128-147.2-224v-4.8h569.6v4.8c1.6 97.6-57.6 180.8-145.6 224zM300.8 739.2c-14.4 0-25.6 11.2-25.6 25.6s11.2 25.6 25.6 25.6c14.4 0 25.6-11.2 25.6-25.6 1.6-14.4-11.2-25.6-25.6-25.6zM563.2 739.2c-14.4 0-25.6 11.2-25.6 25.6s11.2 25.6 25.6 25.6c14.4 0 25.6-11.2 25.6-25.6s-11.2-25.6-25.6-25.6zM147.2 360v-156.8c0-36.8 28.8-65.6 65.6-65.6h49.6v-137.6c0-35.2 28.8-62.4 62.4-62.4s62.4 28.8 62.4 62.4v137.6h88v-137.6c0-35.2 28.8-62.4 62.4-62.4 35.2 0 62.4 28.8 62.4 62.4v137.6h49.6c36.8 0 65.6 28.8 65.6 65.6v412.8h-568v-256zM803.2 628.8c-35.2 0-62.4-28.8-62.4-62.4v-265.6c0-35.2 28.8-62.4 62.4-62.4 35.2 0 62.4 28.8 62.4 62.4v264c0 35.2-28.8 64-62.4 64zM60.8 628.8c-35.2 0-62.4-28.8-62.4-62.4v-265.6c0-35.2 28.8-62.4 62.4-62.4 35.2 0 62.4 28.8 62.4 62.4v264c0 35.2-27.2 64-62.4 64z" />
<glyph unicode="&#xe607;" glyph-name="upload" horiz-adv-x="905" d="M551.024 284.14l24.16 24.16-113.902 113.918-113.918-113.918 24.158-24.16 72.676 72.678v-215.022h34.17v215.022zM745.362 532.938c-27.262 127.2-140.21 222.6-275.522 222.6-109.732 0-204.616-62.832-251.178-154.36-4.54 0.3-9.058 0.684-13.664 0.684-113.218 0-204.998-91.778-204.998-205.016 0-112.88 91.228-204.41 203.962-204.978v-0.048h171.896v34.168l-171.728 0.048c-93.714 0.466-169.96 77.098-169.96 170.81 0 94.2 76.628 170.848 170.828 170.848 2.986 0 5.922-0.234 8.876-0.434l2.536-0.166 22.49-1.502 10.212 20.086c42.578 83.704 127.166 135.692 220.73 135.692 116.004 0 217.826-82.252 242.12-195.586l5.424-25.326 25.862-1.618c71.806-4.472 128.066-64.286 128.066-136.176 0-75.124-60.916-136.278-135.946-136.678-0.848 0.048-1.586 0.084-2.334 0.116l-34.902-0.116h-151.426v-34.168l185.594 0.118c0.786-0.016 1.552-0.118 2.338-0.118 94.328 0 170.842 76.478 170.842 170.846-0.002 90.722-70.808 164.718-160.118 170.274z" />
<glyph unicode="&#xe608;" glyph-name="umbrella" horiz-adv-x="853" d="M443.764 807.024v34.586h-34.168v-34.586c-222.268-8.76-400.836-187.328-409.596-409.61h28.596c19.47 20.872 46.948 34.168 77.748 34.168 38.606 0 72.326-20.554 91.078-51.252h31.4c18.752 30.698 52.47 51.252 91.078 51.252 37.656 0 70.674-19.54 89.694-48.968v-258.548c0-37.758 30.6-68.34 68.338-68.34s68.336 30.582 68.336 68.34h-34.168c0-18.836-15.332-34.172-34.168-34.172-18.838 0-34.17 15.336-34.17 34.172v258.548c19.022 29.434 52.038 48.968 89.698 48.968 38.606 0 72.32-20.554 91.074-51.252h31.4c18.75 30.698 52.47 51.252 91.076 51.252 30.798 0 58.282-13.296 77.75-34.168h28.596c-8.756 222.282-187.328 400.85-409.592 409.61zM747.012 465.75c-42.642 0-80.916-19.036-106.78-49.036-25.858 30-64.132 49.036-106.774 49.036-42.646 0-80.922-19.036-106.782-49.036-25.86 30-64.132 49.036-106.778 49.036-42.644 0-80.916-19.036-106.778-49.036-25.862 30-64.15 49.036-106.778 49.036-23.958 0-46.666-5.988-66.586-16.65 32.618 183.976 193.72 324.172 386.92 324.172 193.204 0 354.304-140.198 386.918-324.172-19.916 10.662-42.624 16.65-66.582 16.65z" />
<glyph unicode="&#xe609;" glyph-name="app-store" d="M420.8 465.6l86.4 150.4c6.4 11.2 3.2 25.6-8 32l-62.4 35.2c-11.2 6.4-25.6 3.2-32-8l-94.4-164.8-104-180.8-86.4-152c-6.4-11.2-3.2-25.6 8-32l62.4-35.2c11.2-6.4 25.6-3.2 32 8l121.6 211.2 76.8 136zM1003.2 510.4h-208c24-46.4 48-89.6 64-120 11.2-20.8 19.2-38.4 22.4-43.2 3.2-6.4 4.8-12.8 6.4-17.6h115.2c11.2 0 20.8 9.6 20.8 20.8v139.2c0 11.2-9.6 20.8-20.8 20.8zM496 510.4l-104-180.8h283.2c-20.8 40-48 99.2-84.8 180.8h-94.4zM260.8 510.4h-240c-11.2 0-20.8-9.6-20.8-20.8v-139.2c0-11.2 9.6-20.8 20.8-20.8h136l104 180.8zM169.6 83.2l-62.4 35.2c-11.2 6.4-22.4 1.6-24-11.2l-11.2-92.8c-1.6-12.8 6.4-17.6 17.6-9.6l80 54.4c11.2 6.4 11.2 17.6 0 24zM843.2 328c0 0-1.6 1.6-1.6 1.6v0c-6.4 11.2-20.8 38.4-38.4 73.6 0 0 0 1.6 0 1.6-1.6 3.2-3.2 4.8-4.8 8-1.6 1.6-1.6 4.8-3.2 6.4s-1.6 3.2-3.2 4.8-3.2 6.4-4.8 9.6c0 1.6-1.6 1.6-1.6 3.2-1.6 3.2-3.2 8-6.4 11.2 0 1.6-1.6 1.6-1.6 3.2-43.2 81.6-97.6 184-131.2 236.8-59.2 92.8-137.6 248-160 236.8-30.4-16 64-212.8 96-286.4s155.2-358.4 179.2-369.6c24-12.8 33.6-4.8 51.2 1.6 16 6.4 44.8 28.8 30.4 57.6zM913.6 180.8l-28.8 56c-6.4 12.8-22.4 17.6-35.2 11.2l-35.2-17.6c-12.8-6.4-16-20.8-8-33.6l36.8-59.2c8-12.8 24-16 35.2-9.6l25.6 14.4c11.2 9.6 16 25.6 9.6 38.4zM904 99.2c-9.6-6.4-32-28.8-4.8-65.6s86.4-38.4 94.4-64c0 0 17.6 190.4-89.6 129.6z" />
<glyph unicode="&#xe60a;" glyph-name="thermometer-full" horiz-adv-x="239" d="M205.012 361.446v292.234c0 47.182-38.234 85.422-85.42 85.422-47.182 0-85.422-38.242-85.422-85.422v-292.238c-21.124-21.57-34.17-51.054-34.17-83.622 0-66.052 53.54-119.592 119.592-119.592s119.59 53.54 119.59 119.592c0.002 32.566-13.048 62.052-34.17 83.626zM119.59 192.398c-47.1 0-85.422 38.324-85.422 85.424 0 22.424 8.674 43.626 24.41 59.712l9.758 9.958v306.188c0 28.262 22.992 51.254 51.254 51.254 28.266 0 51.254-22.992 51.254-51.254v-306.188l9.758-9.958c15.734-16.086 24.408-37.292 24.408-59.712 0.002-47.1-38.318-85.424-85.42-85.424zM136.676 326.072v344.692h-34.168v-344.692c-19.938-7.058-34.302-25.896-34.302-48.25 0-28.394 23.006-51.386 51.386-51.386 28.398 0 51.386 22.992 51.386 51.386-0.002 22.354-14.35 41.192-34.302 48.25zM119.59 260.602c-9.494 0-17.218 7.728-17.218 17.22 0 9.49 7.724 17.216 17.218 17.216 9.496 0 17.22-7.724 17.22-17.216s-7.724-17.22-17.22-17.22z" />
<glyph unicode="&#xe60b;" glyph-name="apple" horiz-adv-x="832" d="M696 416c-1.6 129.6 105.6 192 110.4 195.2-60.8 88-153.6 100.8-187.2 100.8-80 8-155.2-46.4-196.8-46.4-40 0-102.4 46.4-169.6 44.8-86.4-1.6-166.4-51.2-211.2-128-89.6-156.8-22.4-390.4 65.6-516.8 43.2-62.4 94.4-132.8 161.6-129.6 65.6 3.2 89.6 41.6 168 41.6s100.8-41.6 169.6-40c70.4 1.6 113.6 64 156.8 126.4 49.6 72 70.4 142.4 70.4 145.6-1.6 0-136 51.2-137.6 206.4zM566.4 796.8c35.2 43.2 59.2 104 52.8 163.2-51.2-1.6-113.6-33.6-150.4-76.8-33.6-38.4-62.4-99.2-54.4-158.4 57.6-4.8 116.8 28.8 152 72z" />
<glyph unicode="&#xe60c;" glyph-name="thermometer-3-4" horiz-adv-x="239" d="M205.012 361.446v292.234c0 47.182-38.234 85.422-85.42 85.422-47.182 0-85.422-38.242-85.422-85.422v-292.238c-21.124-21.57-34.17-51.054-34.17-83.622 0-66.052 53.54-119.592 119.592-119.592s119.59 53.54 119.59 119.592c0.002 32.566-13.048 62.052-34.17 83.626zM119.59 192.398c-47.1 0-85.422 38.324-85.422 85.424 0 22.424 8.674 43.626 24.41 59.712l9.758 9.958v306.188c0 28.262 22.992 51.254 51.254 51.254 28.266 0 51.254-22.992 51.254-51.254v-306.188l9.758-9.958c15.734-16.086 24.408-37.292 24.408-59.712 0.002-47.1-38.318-85.424-85.42-85.424zM136.676 326.072v259.27h-34.168v-259.27c-19.938-7.058-34.302-25.896-34.302-48.25 0-28.394 23.006-51.386 51.386-51.386 28.398 0 51.386 22.992 51.386 51.386-0.002 22.354-14.35 41.192-34.302 48.25zM119.59 260.602c-9.494 0-17.218 7.728-17.218 17.22 0 9.49 7.724 17.216 17.218 17.216 9.496 0 17.22-7.724 17.22-17.216s-7.724-17.22-17.22-17.22z" />
<glyph unicode="&#xe60d;" glyph-name="behance" d="M424 470.4c54.4 27.2 78.4 70.4 78.4 132.8 0 118.4-88 163.2-208 163.2h-294.4v-635.2h296c113.6 0 225.6 56 225.6 184 0 73.6-27.2 131.2-97.6 155.2zM147.2 657.6h129.6c49.6 0 97.6-12.8 97.6-73.6 0-49.6-36.8-68.8-84.8-68.8h-142.4v142.4zM288 240h-140.8v169.6h144c59.2 0 97.6-22.4 97.6-88 0-60.8-46.4-81.6-100.8-81.6zM804.8 617.6c-158.4 0-233.6-105.6-233.6-243.2 0-156.8 94.4-241.6 233.6-241.6 104 0 179.2 41.6 214.4 148.8h-123.2c-8-28.8-48-52.8-86.4-52.8-70.4 0-113.6 38.4-116.8 115.2h331.2c8 142.4-57.6 273.6-219.2 273.6zM694.4 422.4c1.6 35.2 22.4 96 102.4 96 60.8 0 91.2-32 104-96h-206.4zM667.2 740.8h257.6v-64h-257.6v64z" />
<glyph unicode="&#xe60e;" glyph-name="thermometer-1-4" horiz-adv-x="239" d="M205.012 361.446v292.234c0 47.182-38.234 85.422-85.42 85.422-47.182 0-85.422-38.242-85.422-85.422v-292.238c-21.124-21.57-34.17-51.054-34.17-83.622 0-66.052 53.54-119.592 119.592-119.592s119.59 53.54 119.59 119.592c0.002 32.566-13.048 62.052-34.17 83.626zM119.59 192.398c-47.1 0-85.422 38.324-85.422 85.424 0 22.424 8.674 43.626 24.41 59.712l9.758 9.958v306.188c0 28.262 22.992 51.254 51.254 51.254 28.266 0 51.254-22.992 51.254-51.254v-306.188l9.758-9.958c15.734-16.086 24.408-37.292 24.408-59.712 0.002-47.1-38.318-85.424-85.42-85.424zM136.676 326.072v88.426h-34.168v-88.426c-19.938-7.058-34.302-25.896-34.302-48.25 0-28.394 23.006-51.386 51.386-51.386 28.398 0 51.386 22.992 51.386 51.386-0.002 22.354-14.35 41.192-34.302 48.25zM119.59 260.602c-9.494 0-17.218 7.728-17.218 17.22 0 9.49 7.724 17.216 17.218 17.216 9.496 0 17.22-7.724 17.22-17.216s-7.724-17.22-17.22-17.22z" />
<glyph unicode="&#xe60f;" glyph-name="bitbucket" horiz-adv-x="896" d="M880 846.4c-6.4 9.6-14.4 17.6-24 24-19.2 16-41.6 25.6-65.6 35.2-49.6 19.2-100.8 32-152 40-62.4 9.6-126.4 14.4-192 14.4-59.2 0-123.2-4.8-185.6-14.4-44.8-6.4-88-16-129.6-30.4-28.8-9.6-56-20.8-80-36.8-11.2-8-22.4-17.6-32-28.8-11.2-14.4-16-30.4-12.8-48 6.4-35.2 11.2-70.4 16-105.6 8-52.8 17.6-104 25.6-156.8 9.6-57.6 20.8-115.2 30.4-172.8 1.6-12.8 8-24 17.6-35.2 6.4-6.4 11.2-12.8 19.2-17.6 24-19.2 51.2-32 78.4-43.2 67.2-27.2 137.6-38.4 209.6-43.2 52.8-3.2 104-1.6 156.8 6.4 44.8 6.4 88 16 129.6 30.4 32 11.2 60.8 25.6 88 44.8 11.2 8 22.4 17.6 30.4 28.8 6.4 8 9.6 16 11.2 25.6 12.8 75.2 25.6 152 38.4 227.2 11.2 70.4 22.4 140.8 33.6 211.2 1.6 16-1.6 30.4-11.2 44.8v0zM448 324.8c-76.8 0-140.8 64-139.2 140.8 0 78.4 64 140.8 140.8 140.8 78.4 0 140.8-64 140.8-142.4-1.6-76.8-65.6-139.2-142.4-139.2v0zM728 817.6c-4.8-4.8-9.6-8-14.4-11.2-14.4-8-30.4-12.8-46.4-17.6-30.4-8-62.4-12.8-94.4-16-41.6-4.8-83.2-6.4-123.2-6.4-48 0-94.4 1.6-139.2 8-35.2 4.8-68.8 9.6-102.4 20.8-9.6 3.2-19.2 8-28.8 12.8-4.8 1.6-9.6 6.4-12.8 9.6-6.4 6.4-6.4 14.4 0 20.8 3.2 3.2 8 8 12.8 9.6 14.4 8 28.8 12.8 43.2 16 32 8 64 12.8 97.6 16 52.8 4.8 107.2 6.4 160 4.8 49.6-1.6 97.6-4.8 147.2-14.4 22.4-4.8 44.8-9.6 67.2-17.6 8-3.2 14.4-6.4 22.4-11.2 3.2-1.6 6.4-4.8 9.6-8 6.4-3.2 8-9.6 1.6-16v0zM782.4 224c0-3.2 0-6.4 0-9.6-9.6-51.2-19.2-104-28.8-155.2-3.2-17.6-11.2-32-24-44.8-12.8-14.4-30.4-24-46.4-33.6-32-16-65.6-25.6-99.2-33.6-44.8-9.6-89.6-12.8-115.2-12.8-78.4 0-136 6.4-190.4 22.4-25.6 8-51.2 17.6-73.6 30.4-12.8 6.4-24 16-33.6 25.6-12.8 12.8-20.8 27.2-24 44.8-9.6 51.2-19.2 104-28.8 155.2 0 3.2 0 4.8 0 8 0 12.8 11.2 19.2 24 12.8 1.6 0 1.6-1.6 3.2-1.6 38.4-27.2 80-46.4 124.8-59.2 40-12.8 83.2-20.8 124.8-24 49.6-4.8 97.6-3.2 147.2 3.2 64 9.6 126.4 27.2 184 59.2 11.2 6.4 22.4 14.4 33.6 20.8 1.6 1.6 3.2 3.2 4.8 3.2 6.4 6.4 16 1.6 17.6-11.2v0zM518.4 465.6c0-38.4-32-70.4-70.4-70.4s-70.4 32-70.4 70.4c0 38.4 32 70.4 70.4 70.4 40 0 70.4-30.4 70.4-70.4v0z" />
<glyph unicode="&#xe610;" glyph-name="snow" horiz-adv-x="905" d="M745.362 567.908c-27.262 127.198-140.21 222.598-275.522 222.598-109.732 0-204.616-62.832-251.178-154.36-4.54 0.302-9.058 0.684-13.664 0.684-113.218 0-204.998-91.78-204.998-205.016 0-112.882 91.228-204.41 203.962-204.978v-0.050h35.22v34.168h-27.412l-7.642 0.050c-93.714 0.464-169.96 77.096-169.96 170.81 0 94.2 76.628 170.846 170.828 170.846 2.986 0 5.922-0.234 8.876-0.434l2.536-0.166 22.49-1.502 10.212 20.088c42.578 83.704 127.166 135.692 220.732 135.692 116.004 0 217.824-82.254 242.118-195.588l5.424-25.326 25.862-1.62c71.806-4.47 128.066-64.284 128.066-136.174 0-75.124-60.916-136.278-135.946-136.676-0.848 0.048-1.586 0.082-2.334 0.116l-34.902-0.116h-48.92v-34.168h83.088v0.118c0.786-0.016 1.552-0.118 2.338-0.118 94.328 0 170.842 76.478 170.842 170.844 0 90.73-70.806 164.722-160.116 170.278zM316.064 362.158c-14.148 0-25.626-11.478-25.626-25.624 0-14.148 11.478-25.624 25.626-25.624s25.626 11.476 25.626 25.624c0 14.146-11.476 25.624-25.626 25.624zM384.402 260.954c-14.148 0-25.626-11.476-25.626-25.624 0-14.146 11.48-25.624 25.626-25.624 14.148 0 25.626 11.478 25.626 25.624 0 14.142-11.476 25.624-25.626 25.624zM521.080 260.954c-14.148 0-25.624-11.476-25.624-25.624 0-14.146 11.476-25.624 25.624-25.624 14.146 0 25.624 11.478 25.624 25.624 0 14.142-11.478 25.624-25.624 25.624zM452.74 362.158c-14.148 0-25.626-11.478-25.626-25.624 0-14.148 11.48-25.624 25.626-25.624 14.15 0 25.628 11.476 25.628 25.624 0 14.146-11.478 25.624-25.628 25.624zM589.416 362.158c-14.148 0-25.624-11.478-25.624-25.624 0-14.148 11.474-25.624 25.624-25.624s25.628 11.476 25.628 25.624c0 14.146-11.478 25.624-25.628 25.624zM316.064 158.078c-14.148 0-25.626-11.478-25.626-25.626 0-14.142 11.478-25.624 25.626-25.624s25.626 11.478 25.626 25.624c0 14.148-11.476 25.626-25.626 25.626zM452.74 158.078c-14.148 0-25.626-11.478-25.626-25.626 0-14.142 11.48-25.624 25.626-25.624 14.15 0 25.628 11.478 25.628 25.624 0 14.148-11.478 25.626-25.628 25.626zM589.416 158.078c-14.148 0-25.624-11.478-25.624-25.626 0-14.142 11.474-25.624 25.624-25.624s25.628 11.478 25.628 25.624c0 14.148-11.478 25.626-25.628 25.626z" />
<glyph unicode="&#xe611;" glyph-name="blogger" d="M958.4 576h-57.6c-35.2 0-65.6 30.4-68.8 64v0c0 182.4-147.2 320-331.2 320h-168c-184 0-332.8-147.2-332.8-331.2v-363.2c0-182.4 148.8-329.6 332.8-329.6h358.4c184 0 332.8 147.2 332.8 331.2v233.6c0 36.8-28.8 75.2-65.6 75.2zM320 704h192c35.2 0 64-28.8 64-64s-28.8-64-64-64h-192c-35.2 0-64 28.8-64 64s28.8 64 64 64zM704 192h-384c-35.2 0-64 28.8-64 64s28.8 64 64 64h384c35.2 0 64-28.8 64-64s-28.8-64-64-64z" />
<glyph unicode="&#xe612;" glyph-name="snow-sun" horiz-adv-x="991" d="M324.606 883.504h34.168v-136.208h-34.168v136.208zM0 560.368h136.208v-34.17h-136.208v34.17zM184.042 675.521l-96.332 96.332 24.159 24.159 96.332-96.332-24.159-24.159zM496.673 675.476l-24.159 24.159 96.3 96.3 24.159-24.159-96.3-96.3zM845.884 442.89c-24.678 115.19-126.98 201.598-249.53 201.598-37.322 0-72.738-8.026-104.674-22.44-28.462 54.708-85.522 92.146-151.458 92.146-94.348 0-170.844-76.478-170.844-170.828 0-42.026 15.35-80.332 40.542-110.066-24.392-31.434-39.074-70.792-39.074-113.668 0-102.22 82.62-185.126 184.726-185.628v-0.044h20.288v34.166h-12.312l-7.808 0.050c-83.104 0.402-150.724 68.356-150.724 151.458 0 83.54 67.954 151.51 151.492 151.51 2.568 0 5.104-0.2 7.64-0.382l24.994-1.62 10.194 20.072c38.006 74.696 113.502 121.11 197.020 121.11 103.562 0 194.458-73.426 216.112-174.582l5.442-25.344 25.858-1.604c63.352-3.938 112.968-56.708 112.968-120.11 0-66.252-53.708-120.192-119.876-120.558-0.72 0.050-1.352 0.082-2.002 0.082l-34.97-0.082h-31.084v-34.166h65.256v0.098c0.714-0.016 1.398-0.098 2.118-0.098 85.442 0 154.728 69.256 154.728 154.724-0.006 82.17-64.14 149.172-145.022 154.206zM368.886 504.692c-4.122 0.266-8.208 0.618-12.378 0.618-47.25 0-90.228-17.802-123.012-46.866-18.654 23.358-29.95 52.788-29.95 84.92 0 75.346 61.314 136.66 136.676 136.66 52.822 0 98.402-30.298 121.16-74.228-39.274-24.59-71.374-59.594-92.496-101.104zM435.472 270.45c-14.15 0-25.626-11.476-25.626-25.628 0-14.146 11.478-25.624 25.626-25.624s25.624 11.478 25.624 25.624c0.002 14.146-11.476 25.628-25.624 25.628zM503.808 167.94c-14.15 0-25.626-11.476-25.626-25.624 0-14.152 11.478-25.63 25.626-25.63s25.624 11.478 25.624 25.63c0.004 14.144-11.47 25.624-25.624 25.624zM640.484 167.94c-14.15 0-25.626-11.476-25.626-25.624 0-14.152 11.476-25.63 25.626-25.63 14.148 0 25.626 11.478 25.626 25.63 0.004 14.144-11.476 25.624-25.626 25.624zM572.144 270.45c-14.144 0-25.624-11.476-25.624-25.628 0-14.146 11.478-25.624 25.624-25.624 14.148 0 25.626 11.478 25.626 25.624 0.004 14.146-11.476 25.628-25.626 25.628zM708.822 270.45c-14.146 0-25.624-11.476-25.624-25.628 0-14.146 11.478-25.624 25.624-25.624s25.624 11.478 25.624 25.624c0.002 14.146-11.474 25.628-25.624 25.628zM435.472 65.066c-14.15 0-25.626-11.478-25.626-25.624 0-14.152 11.478-25.628 25.626-25.628s25.624 11.476 25.624 25.628c0.002 14.146-11.476 25.624-25.624 25.624zM572.144 65.066c-14.144 0-25.624-11.478-25.624-25.624 0-14.152 11.478-25.628 25.624-25.628 14.148 0 25.626 11.476 25.626 25.628 0.004 14.146-11.476 25.624-25.626 25.624zM708.822 65.066c-14.146 0-25.624-11.478-25.624-25.624 0-14.152 11.478-25.628 25.624-25.628s25.624 11.476 25.624 25.628c0.002 14.146-11.474 25.624-25.624 25.624z" />
<glyph unicode="&#xe613;" glyph-name="bootstrap" d="M515.2 403.2h-104v-163.2h104c86.4 0 91.2 60.8 91.2 83.2 1.6 19.2-6.4 80-91.2 80zM886.4 960h-748.8c-76.8 0-137.6-60.8-137.6-137.6v-748.8c0-76.8 60.8-137.6 137.6-137.6h748.8c75.2 0 137.6 60.8 137.6 137.6v748.8c0 76.8-60.8 137.6-137.6 137.6zM553.6 128h-307.2v640h299.2c169.6 0 206.4-120 206.4-168 0-96-54.4-120-81.6-131.2 41.6-11.2 108.8-46.4 108.8-169.6-1.6-33.6-6.4-171.2-225.6-171.2zM577.6 584c0 19.2-12.8 62.4-73.6 62.4h-92.8v-128h91.2c67.2 0 75.2 43.2 75.2 65.6z" />
<glyph unicode="&#xe614;" glyph-name="snow-moon" horiz-adv-x="854" d="M709.204 493.414c-24.674 115.186-126.98 201.594-249.526 201.594-30.732 0-60.162-5.472-87.442-15.45-16.216 87.274-92.33 153.426-184.308 153.426-7.058 0-13.998-0.468-20.872-1.218 12.712-19.004 20.138-41.828 20.138-66.386 0-66.036-53.538-119.59-119.59-119.59-24.576 0-47.382 7.422-66.386 20.136-0.75-6.858-1.218-13.814-1.218-20.872 0-63.416 31.516-119.376 79.632-153.41-28.246-32.584-45.462-74.976-45.462-121.494 0-102.22 82.62-185.126 184.726-185.628v-0.044h20.288v34.168h-12.312l-7.808 0.050c-83.104 0.396-150.724 68.352-150.724 151.458 0 83.54 67.954 151.51 151.492 151.51 2.57 0 5.104-0.202 7.64-0.384l24.994-1.618 10.194 20.070c38.006 74.696 113.502 121.11 197.022 121.11 103.556 0 194.456-73.426 216.108-174.582l5.442-25.342 25.862-1.6c63.35-3.94 112.966-56.708 112.966-120.114 0-66.25-53.708-120.192-119.876-120.556-0.716 0.048-1.35 0.080-2.002 0.080l-34.968-0.080h-31.086v-34.168h65.252v0.098c0.718-0.016 1.4-0.098 2.122-0.098 85.438 0 154.728 69.256 154.728 154.724-0.008 82.172-64.14 149.172-145.026 154.21zM232.208 555.21c-4.122 0.268-8.208 0.618-12.378 0.618-43.346 0-83.122-14.966-114.72-39.876-34.37 22.108-59.562 57.294-67.922 98.688 9.942-2.002 20.122-3.020 30.416-3.020 84.788 0 153.76 68.972 153.76 153.76 0 10.294-1.018 20.47-3.020 30.416 63.784-12.864 113.252-65.334 121.878-130.52-46.35-24.676-84.19-63.2-108.014-110.066zM298.976 320.984c-14.148 0-25.626-11.478-25.626-25.624 0-14.152 11.48-25.628 25.626-25.628s25.628 11.476 25.628 25.628c0 14.146-11.48 25.624-25.628 25.624zM367.314 218.476c-14.148 0-25.626-11.48-25.626-25.624 0-14.148 11.478-25.624 25.626-25.624s25.628 11.476 25.628 25.624c0 14.144-11.48 25.624-25.628 25.624zM503.99 218.476c-14.146 0-25.624-11.48-25.624-25.624 0-14.148 11.476-25.624 25.624-25.624s25.624 11.476 25.624 25.624c0.004 14.144-11.478 25.624-25.624 25.624zM461.28 295.356c0-14.154-11.474-25.628-25.628-25.628s-25.628 11.474-25.628 25.628c0 14.154 11.474 25.628 25.628 25.628s25.628-11.474 25.628-25.628zM597.956 295.356c0-14.154-11.474-25.628-25.628-25.628s-25.628 11.474-25.628 25.628c0 14.154 11.474 25.628 25.628 25.628s25.628-11.474 25.628-25.628zM298.976 115.602c-14.148 0-25.626-11.478-25.626-25.624s11.48-25.626 25.626-25.626c14.146 0 25.628 11.48 25.628 25.626s-11.48 25.624-25.628 25.624zM435.652 115.602c-14.148 0-25.626-11.478-25.626-25.624s11.478-25.626 25.626-25.626 25.628 11.48 25.628 25.626c0.002 14.146-11.48 25.624-25.628 25.624zM572.328 115.602c-14.148 0-25.624-11.478-25.624-25.624s11.476-25.626 25.624-25.626 25.626 11.48 25.626 25.626c0.002 14.146-11.478 25.624-25.626 25.624z" />
<glyph unicode="&#xe615;" glyph-name="chrome" d="M512 185.6c-51.2 0-99.2 14.4-142.4 41.6-43.2 28.8-75.2 64-96 108.8l-209.6 368c-44.8-78.4-64-166.4-64-256 0-128 41.6-240 124.8-334.4 83.2-96 187.2-152 310.4-171.2l148.8 257.6c-14.4-4.8-40-14.4-72-14.4zM350.4 654.4c48 36.8 100.8 49.6 161.6 49.6 8 0 440 0 440 0-44.8 76.8-107.2 142.4-185.6 188.8-76.8 44.8-161.6 67.2-254.4 67.2-80 0-155.2-17.6-224-51.2s-132.8-83.2-180.8-147.2l148.8-249.6c14.4 57.6 48 105.6 94.4 142.4zM985.6 640h-297.6c51.2-51.2 86.4-118.4 86.4-192 0-54.4-16-104-46.4-150.4l-209.6-361.6c140.8 1.6 259.2 51.2 358.4 152 97.6 100.8 147.2 219.2 147.2 360 0 65.6-11.2 134.4-38.4 192zM704 448c0-106.039-85.961-192-192-192s-192 85.961-192 192c0 106.039 85.961 192 192 192s192-85.961 192-192z" />
<glyph unicode="&#xe616;" glyph-name="codepen" horiz-adv-x="992" d="M529.6 947.2c-27.2 17.6-64 17.6-91.2-1.6l-406.4-283.2c-22.4-14.4-35.2-40-35.2-65.6v-305.6c0-27.2 14.4-52.8 36.8-67.2l414.4-275.2c27.2-17.6 62.4-17.6 89.6 0l422.4 278.4c22.4 14.4 36.8 40 36.8 67.2v300.8c0 27.2-14.4 52.8-36.8 67.2l-430.4 284.8zM844.8 616l-155.2-104-147.2 105.6v209.6l302.4-211.2zM436.8 825.6v-204.8l-150.4-104-148.8 100.8 299.2 208zM96 516.8l96-65.6-96-67.2v132.8zM438.4 80l-300.8 201.6 150.4 105.6 150.4-100.8v-206.4zM380.8 452.8l97.6 68.8 113.6-75.2-100.8-67.2-110.4 73.6zM545.6 80v206.4l144 96 155.2-102.4-299.2-200zM888 380.8l-102.4 67.2 102.4 68.8v-136z" />
<glyph unicode="&#xe617;" glyph-name="snow-alt" horiz-adv-x="905" d="M745.362 593.384c-27.262 127.2-140.21 222.598-275.522 222.598-109.732 0-204.616-62.832-251.178-154.36-4.54 0.3-9.058 0.684-13.664 0.684-113.218 0-204.998-91.78-204.998-205.014 0-112.884 91.228-204.414 203.962-204.98v-0.050h35.22v34.17h-27.412l-7.642 0.050c-93.714 0.466-169.96 77.096-169.96 170.81 0 94.198 76.628 170.844 170.828 170.844 2.986 0 5.922-0.234 8.876-0.434l25.026-1.668 10.212 20.086c42.578 83.704 127.166 135.692 220.732 135.692 116.004 0 217.824-82.252 242.118-195.586l5.424-25.326 25.862-1.62c71.806-4.472 128.066-64.284 128.066-136.176 0-75.126-60.916-136.274-135.946-136.674-0.848 0.050-1.586 0.082-2.334 0.118l-34.902-0.118h-14.75v-34.17h48.918v0.12c0.786-0.020 1.552-0.12 2.338-0.12 94.328 0 170.842 76.48 170.842 170.844 0 90.73-70.806 164.726-160.116 170.28zM375.86 268.98v44.93l37.124-20.888 11.71 20.854-42.194 23.742 42.194 23.742-11.71 20.854-37.124-20.89v44.332h-34.17v-45.082l-38.456 21.64-11.712-20.854 42.196-23.742-42.196-23.742 11.712-20.854 38.456 21.636v-45.678zM464.052 194.584l-37.122-20.884v44.324h-34.168v-45.078l-38.458 21.638-11.712-20.856 42.194-23.74-42.194-23.74 11.712-20.856 38.458 21.638v-45.682h34.168v44.932l37.122-20.888 11.71 20.856-42.19 23.74 42.19 23.74zM618.082 313.876l-37.124-20.89v44.33h-34.17v-45.078l-38.454 21.638-11.716-20.854 42.194-23.74-42.194-23.742 11.716-20.858 38.454 21.64v-45.682h34.17v44.93l37.124-20.888 11.708 20.858-42.192 23.742 42.192 23.74z" />
<glyph unicode="&#xe618;" glyph-name="snow-alt-sun" horiz-adv-x="991" d="M324.606 908.88h34.168v-136.208h-34.168v136.208zM0 585.742h136.208v-34.168h-136.208v34.168zM184.041 700.899l-96.331 96.331 24.159 24.159 96.331-96.331-24.159-24.159zM496.631 700.84l-24.156 24.156 96.299 96.299 24.156-24.156-96.299-96.299zM845.884 468.272c-24.678 115.186-126.98 201.592-249.53 201.592-37.322 0-72.738-8.042-104.674-22.458-28.462 54.724-85.522 92.164-151.458 92.164-94.348 0-170.844-76.48-170.844-170.83 0-42.026 15.366-80.332 40.542-110.064-24.392-31.436-39.074-70.792-39.074-113.668 0-102.222 82.62-185.124 184.726-185.626v-0.046h20.288v34.164h-12.312l-7.808 0.050c-83.104 0.398-150.724 68.352-150.724 151.458 0 83.536 67.954 151.506 151.492 151.506 2.568 0 5.104-0.2 7.64-0.382l2.538-0.168 22.456-1.452 10.194 20.072c38.006 74.694 113.502 121.108 197.020 121.108 103.562 0 194.458-73.428 216.112-174.582l5.442-25.346 25.858-1.6c63.352-3.942 112.968-56.708 112.968-120.11 0-66.254-53.708-120.192-119.876-120.558-0.72 0.050-1.352 0.082-2.002 0.082l-31.882-0.082v-34.166h31.082v0.096c0.716-0.014 1.4-0.096 2.12-0.096 85.442 0 154.728 69.254 154.728 154.724-0.006 82.174-64.14 149.178-145.022 154.218zM368.886 530.070c-4.122 0.266-8.208 0.616-12.378 0.616-47.25 0-90.244-17.784-123.012-46.848-18.654 23.324-29.95 52.772-29.95 84.904 0 75.346 61.314 136.66 136.676 136.66 52.822 0 98.402-30.298 121.142-74.244-39.256-24.592-71.356-59.58-92.478-101.088zM495.318 176.082v44.93l37.12-20.89 11.714 20.856-42.194 23.74 42.194 23.742-11.714 20.856-37.12-20.888v44.33h-34.17v-45.078l-38.456 21.636-11.712-20.856 42.194-23.742-42.194-23.74 11.712-20.856 38.456 21.642v-45.682zM583.508 101.69l-37.12-20.89v44.328h-34.172v-45.082l-38.454 21.644-11.714-20.854 42.194-23.746-42.194-23.742 11.714-20.854 38.454 21.638v-45.676h34.172v44.928l37.12-20.89 11.716 20.854-42.198 23.742 42.198 23.746zM737.536 220.978l-37.124-20.888v44.332h-34.166v-45.082l-38.456 21.638-11.714-20.856 42.194-23.74-42.194-23.742 11.714-20.852 38.456 21.636v-45.678h34.166v44.93l37.124-20.888 11.712 20.852-42.194 23.742 42.194 23.74z" />
<glyph unicode="&#xe619;" glyph-name="css3" d="M152 896l-33.6-172.8h699.2l-22.4-110.4h-699.2l-33.6-172.8h699.2l-38.4-196.8-281.6-92.8-244.8 92.8 16 84.8h-171.2l-41.6-204.8 404.8-155.2 465.6 155.2 153.6 772.8h-872z" />
<glyph unicode="&#xe61a;" glyph-name="snow-alt-moon" horiz-adv-x="854" d="M709.204 518.79c-24.674 115.188-126.98 201.592-249.526 201.592-30.732 0-60.18-5.472-87.442-15.448-16.216 87.274-92.33 153.426-184.308 153.426-7.058 0-13.998-0.468-20.872-1.218 12.712-19.002 20.138-41.826 20.138-66.386 0-66.036-53.538-119.59-119.59-119.59-24.576 0-47.382 7.424-66.386 20.138-0.75-6.858-1.218-13.814-1.218-20.872 0-63.432 31.516-119.376 79.632-153.41-28.246-32.584-45.462-74.974-45.462-121.49 0-102.226 82.62-185.126 184.726-185.628v-0.050h20.288v34.166h-12.312l-7.808 0.050c-83.104 0.398-150.724 68.352-150.724 151.458 0 83.538 67.954 151.506 151.492 151.506 2.57 0 5.104-0.2 7.64-0.382l2.538-0.168 22.456-1.452 10.194 20.072c38.006 74.694 113.502 121.11 197.022 121.11 103.556 0 194.456-73.428 216.108-174.582l5.442-25.342 25.862-1.602c63.35-3.938 112.966-56.708 112.966-120.11 0-66.252-53.708-120.192-119.876-120.558-0.716 0.050-1.35 0.082-2.002 0.082l-31.882-0.082v-34.17h31.082v0.104c0.718-0.018 1.4-0.104 2.122-0.104 85.438 0 154.728 69.26 154.728 154.728-0.010 82.172-64.142 149.174-145.028 154.212zM232.208 580.588c-4.122 0.266-8.208 0.618-12.378 0.618-43.346 0-83.122-14.984-114.72-39.876-34.37 22.108-59.562 57.292-67.92 98.686 9.942-2.002 20.122-3.020 30.416-3.020 84.788 0 153.76 68.972 153.76 153.76 0 10.294-1.018 20.47-3.020 30.416 63.784-12.864 113.252-65.334 121.878-130.52-46.352-24.674-84.192-63.198-108.016-110.064zM359.408 226.602v44.934l37.12-20.896 11.712 20.858-42.192 23.742 42.192 23.742-11.712 20.854-37.12-20.886v44.328h-34.17v-45.082l-38.456 21.64-11.712-20.854 42.192-23.742-42.192-23.742 11.712-20.858 38.456 21.646v-45.684zM447.598 152.208l-37.122-20.888v44.328h-34.168v-45.082l-38.458 21.642-11.712-20.856 42.196-23.742-42.196-23.742 11.712-20.854 38.458 21.638v-45.68h34.168v44.93l37.122-20.888 11.714 20.854-42.196 23.742 42.196 23.742zM601.626 271.498l-37.12-20.888v44.328h-34.17v-45.078l-38.456 21.638-11.714-20.858 42.194-23.738-42.194-23.742 11.714-20.856 38.456 21.642v-45.684h34.17v44.93l37.12-20.888 11.712 20.856-42.198 23.742 42.198 23.738z" />
<glyph unicode="&#xe61b;" glyph-name="delicious" d="M852.8 960h-681.6c-94.4 0-171.2-76.8-171.2-171.2v-683.2c0-92.8 76.8-169.6 171.2-169.6h683.2c92.8 0 169.6 76.8 169.6 171.2v681.6c0 94.4-76.8 171.2-171.2 171.2zM960 107.2c0-28.8-11.2-54.4-32-75.2s-46.4-32-75.2-32h-340.8v448h-448v340.8c0 28.8 11.2 56 32 75.2 20.8 20.8 46.4 32 75.2 32h340.8v-448h448v-340.8z" />
<glyph unicode="&#xe61c;" glyph-name="rain" horiz-adv-x="905" d="M745.362 636.294c-27.262 127.2-140.21 222.6-275.522 222.6-109.732 0-204.616-62.832-251.178-154.362-4.54 0.302-9.058 0.684-13.664 0.684-113.218 0-204.998-91.78-204.998-205.014 0-112.886 91.228-204.414 203.962-204.984v-0.048h35.22v34.172h-27.412l-7.642 0.048c-93.714 0.468-169.96 77.1-169.96 170.812 0 94.2 76.628 170.846 170.828 170.846 2.986 0 5.922-0.234 8.876-0.436l2.536-0.166 22.49-1.502 10.212 20.088c42.578 83.704 127.166 135.692 220.732 135.692 116.004 0 217.824-82.252 242.118-195.588l5.424-25.328 25.862-1.618c71.806-4.47 128.066-64.284 128.066-136.174 0-75.128-60.916-136.274-135.946-136.676-0.848 0.050-1.586 0.082-2.334 0.122l-34.902-0.122h-48.92v-34.172h83.088v0.118c0.786-0.016 1.552-0.118 2.338-0.118 94.328 0 170.842 76.48 170.842 170.848 0 90.732-70.806 164.726-160.116 170.278zM427.114 175.096v-136.676h34.168v341.694h-34.168zM563.79 243.438v-136.676h34.168v341.69h-34.168zM290.438 243.438v-136.676h34.168v341.69h-34.168z" />
<glyph unicode="&#xe61d;" glyph-name="deviantart-1" d="M561.6 507.2h-132.8l121.6-212.8c209.6 57.6 416 115.2 473.6 131.2-115.2 155.2-377.6 214.4-675.2 161.6l-46.4 89.6-115.2-25.6 46.4-92.8c-214.4-75.2-283.2-243.2-198.4-404.8 0 0 233.6 64 475.2 131.2l-132.8 254.4c131.2 20.8 326.4 16 424-89.6-28.8-8-92.8-24-171.2-43.2l-68.8 100.8zM166.4 291.2c-11.2 94.4 27.2 166.4 96 208l80-164.8c-99.2-24-176-43.2-176-43.2z" />
<glyph unicode="&#xe61e;" glyph-name="deviantart-2" horiz-adv-x="640" d="M636.8 774.4v185.6h-185.6l-19.2-19.2-88-166.4-27.2-19.2h-313.6v-256h172.8l14.4-17.6-187.2-360v-185.6h185.6l19.2 19.2 88 166.4 27.2 19.2h313.6v256h-172.8l-14.4 17.6z" />
<glyph unicode="&#xe61f;" glyph-name="rain-sun" horiz-adv-x="991" d="M563.79 82.184v-136.676h34.168v341.692h-34.168zM700.464 150.522v-136.676h34.17v341.694h-34.17zM427.112 150.522v-136.676h34.17v341.694h-34.17zM324.606 951.826h34.168v-136.208h-34.168v136.208zM0 628.688h136.208v-34.168h-136.208v34.168zM184.042 743.843l-96.331 96.331 24.159 24.159 96.331-96.331-24.159-24.159zM496.652 743.792l-24.159 24.159 96.299 96.299 24.159-24.159-96.299-96.299zM845.884 511.214c-24.678 115.188-126.98 201.594-249.53 201.594-37.322 0-72.738-8.024-104.674-22.44-28.462 54.708-85.522 92.148-151.458 92.148-94.348 0-170.844-76.48-170.844-170.828 0-42.028 15.35-80.334 40.542-110.064-24.392-31.434-39.074-70.792-39.074-113.67 0-102.222 82.62-185.124 184.726-185.624v-0.048h20.288v34.168h-12.312l-7.808 0.048c-83.104 0.4-150.724 68.354-150.724 151.458 0 83.538 67.954 151.506 151.492 151.506 2.568 0 5.104-0.2 7.64-0.382l24.994-1.618 10.194 20.070c38.006 74.696 113.502 121.112 197.020 121.112 103.562 0 194.458-73.426 216.112-174.584l5.442-25.342 25.858-1.6c63.352-3.94 112.968-56.712 112.968-120.112 0-66.252-53.708-120.192-119.876-120.554-0.72 0.048-1.352 0.082-2.002 0.082l-48.968-0.082v-34.168h48.17v0.102c0.714-0.020 1.398-0.102 2.118-0.102 85.442 0 154.728 69.254 154.728 154.722-0.006 82.168-64.14 149.17-145.022 154.208zM368.886 573.012c-4.122 0.266-8.208 0.618-12.378 0.618-47.25 0-90.228-17.802-123.012-46.866-18.654 23.358-29.95 52.788-29.95 84.922 0 75.346 61.314 136.658 136.676 136.658 52.822 0 98.402-30.298 121.16-74.228-39.274-24.588-71.374-59.594-92.496-101.104z" />
<glyph unicode="&#xe620;" glyph-name="lightning" horiz-adv-x="905" d="M745.362 593.384c-27.262 127.2-140.21 222.598-275.522 222.598-109.732 0-204.616-62.832-251.178-154.36-4.54 0.3-9.058 0.684-13.664 0.684-113.218 0-204.998-91.78-204.998-205.014 0-112.884 91.228-204.414 203.962-204.98v-0.050h103.558v34.17l-103.392 0.050c-93.714 0.466-169.96 77.096-169.96 170.81 0 94.198 76.628 170.844 170.828 170.844 2.986 0 5.922-0.234 8.876-0.434l25.026-1.668 10.212 20.086c42.578 83.704 127.166 135.692 220.732 135.692 116.004 0 217.824-82.252 242.118-195.586l5.424-25.326 25.862-1.62c71.806-4.472 128.066-64.284 128.066-136.176 0-75.126-60.916-136.274-135.946-136.674-0.848 0.050-1.586 0.082-2.334 0.118l-83.822-0.118v-34.17h83.088v0.12c0.786-0.020 1.552-0.12 2.338-0.12 94.328 0 170.842 76.48 170.842 170.844 0 90.73-70.806 164.726-160.116 170.28zM475.666 252.196h71.922l-109.578 156.512-27.982-19.602 71.944-102.742h-71.944l40.728-58.178 102.122-146.838 27.996 19.59-102.122 146.854z" />
<glyph unicode="&#xe621;" glyph-name="digg" d="M156.8 606.4h-156.8v-313.6h260.8v449.6h-104v-136zM153.6 388.8h-52.8v129.6h52.8v-129.6zM460.8 288h152v-40h-152v-94.4h256v451.2h-256v-316.8zM558.4 505.6h51.2v-129.6h-51.2v129.6zM768 604.8v-316.8h152v-40h-152v-94.4h256v451.2h-256zM916.8 376h-51.2v129.6h51.2v-129.6zM307.2 740.8h104v-88h-104v88zM307.2 604.8h104v-315.2h-104v315.2z" />
<glyph unicode="&#xe622;" glyph-name="lightning-sun" horiz-adv-x="991" d="M324.606 908.914h34.168v-136.208h-34.168v136.208zM0 585.778h136.208v-34.17h-136.208v34.17zM184.041 700.931l-96.331 96.331 24.159 24.159 96.331-96.331-24.159-24.159zM496.66 700.885l-24.157 24.157 96.3 96.3 24.157-24.157-96.3-96.3zM845.884 468.304c-24.678 115.186-126.98 201.592-249.53 201.592-37.322 0-72.738-8.026-104.674-22.44-28.462 54.708-85.522 92.146-151.458 92.146-94.348 0-170.844-76.48-170.844-170.83 0-42.026 15.35-80.332 40.542-110.064-24.392-31.434-39.074-70.79-39.074-113.668 0-102.224 82.62-185.126 184.726-185.624v-0.050h71.542v34.168l-71.374 0.048c-83.104 0.4-150.724 68.356-150.724 151.458 0 83.538 67.954 151.506 151.492 151.506 2.568 0 5.104-0.2 7.64-0.384l24.994-1.618 10.194 20.072c38.006 74.694 113.502 121.108 197.020 121.108 103.562 0 194.458-73.426 216.112-174.582l5.442-25.344 25.858-1.602c63.352-3.938 112.968-56.708 112.968-120.11 0-66.25-53.708-120.192-119.876-120.558-0.72 0.048-1.352 0.086-2.002 0.086l-34.97-0.086h-65.252v-34.168h99.422v0.1c0.716-0.016 1.4-0.1 2.12-0.1 85.442 0 154.728 69.254 154.728 154.726-0.006 82.174-64.14 149.18-145.022 154.218zM368.886 530.102c-4.122 0.266-8.208 0.618-12.378 0.618-47.25 0-90.228-17.786-123.012-46.866-18.654 23.34-29.95 52.788-29.95 84.92 0 75.346 61.314 136.66 136.676 136.66 52.822 0 98.402-30.298 121.16-74.226-39.274-24.61-71.374-59.596-92.496-101.106zM578.17 159.248h71.926l-109.58 156.512-27.98-19.604 71.94-102.74h-71.94l40.722-58.178 102.126-146.834 27.998 19.584-102.124 146.854z" />
<glyph unicode="&#xe623;" glyph-name="dribbble" d="M512 960c-283.2 0-512-228.8-512-512s228.8-512 512-512 512 228.8 512 512-228.8 512-512 512zM848 712c54.4-70.4 88-156.8 91.2-252.8-115.2 20.8-214.4 20.8-299.2 8-11.2 25.6-22.4 49.6-33.6 72 91.2 38.4 174.4 92.8 241.6 172.8zM512 875.2c105.6 0 203.2-38.4 276.8-102.4-60.8-73.6-136-123.2-222.4-158.4-54.4 102.4-110.4 187.2-155.2 249.6 32 8 65.6 11.2 100.8 11.2zM328 833.6c43.2-57.6 100.8-142.4 158.4-244.8-120-33.6-254.4-41.6-390.4-41.6 30.4 126.4 116.8 232 232 286.4zM84.8 448c0 4.8 0 9.6 0 14.4 0 0 1.6 0 1.6 0 152 0 304 9.6 440 49.6 9.6-20.8 20.8-41.6 30.4-64-179.2-52.8-289.6-169.6-366.4-281.6-65.6 75.2-105.6 174.4-105.6 281.6zM512 20.8c-97.6 0-187.2 33.6-259.2 88 72 108.8 172.8 216 336 260.8 38.4-97.6 68.8-204.8 86.4-316.8-51.2-20.8-105.6-32-163.2-32zM753.6 96c-17.6 102.4-46.4 200-80 291.2 75.2 9.6 161.6 8 260.8-11.2-20.8-116.8-88-216-180.8-280z" />
<glyph unicode="&#xe624;" glyph-name="dropbox" d="M713.6 153.6l-201.6 152-198.4-152-115.2 67.2v-73.6l313.6-206.4 313.6 204.8v73.6zM1024 731.2l-302.4 192-209.6-172.8 313.6-182.4zM0 400l310.4-182.4 201.6 153.6-297.6 190.4zM310.4 923.2l-310.4-201.6 214.4-160 297.6 188.8zM512 371.2l204.8-153.6 307.2 182.4-198.4 168z" />
<glyph unicode="&#xe625;" glyph-name="lightning-rain" horiz-adv-x="905" d="M745.362 601.926c-27.262 127.2-140.21 222.598-275.522 222.598-109.732 0-204.616-62.832-251.178-154.36-4.54 0.3-9.058 0.682-13.664 0.682-113.218 0-204.998-91.778-204.998-205.012 0-112.884 91.228-204.416 203.962-204.98v-0.048h18.136v34.168h-10.328l-7.642 0.050c-93.714 0.464-169.96 77.094-169.96 170.81 0 94.196 76.628 170.844 170.828 170.844 2.986 0 5.922-0.234 8.876-0.434l25.026-1.668 10.212 20.088c42.578 83.704 127.166 135.692 220.732 135.692 116.004 0 217.824-82.252 242.118-195.588l5.424-25.326 25.862-1.62c71.806-4.47 128.066-64.282 128.066-136.176 0-75.126-60.916-136.276-135.946-136.678-0.848 0.050-1.586 0.082-2.334 0.118l-15.482-0.118v-34.168h14.748v0.12c0.786-0.020 1.552-0.12 2.338-0.12 94.328 0 170.842 76.48 170.842 170.846 0 90.732-70.806 164.726-160.116 170.28zM239.184 346.376l109.598-156.498 27.964 19.602-109.582 156.516zM546.27 346.376l109.598-156.498 27.964 19.602-109.58 156.516zM492.752 209.48h71.922l-109.578 156.516-27.982-19.606 71.94-102.736h-71.94l119.59-170.846 27.996 19.586-78.862 112.682z" />
<glyph unicode="&#xe626;" glyph-name="drupal" horiz-adv-x="896" d="M672 769.6c-52.8 32-102.4 44.8-152 78.4-30.4 20.8-73.6 70.4-108.8 112-6.4-68.8-27.2-96-51.2-115.2-51.2-40-81.6-51.2-126.4-75.2-36.8-19.2-235.2-137.6-235.2-392s214.4-441.6 452.8-441.6c238.4 0 444.8 172.8 444.8 433.6 1.6 262.4-192 380.8-224 400zM675.2 35.2c-4.8-4.8-51.2-36.8-104-41.6s-126.4-8-169.6 32c-6.4 6.4-4.8 16 0 20.8s9.6 6.4 14.4 6.4c6.4 0 4.8 0 8-1.6 19.2-16 49.6-28.8 112-28.8 64 0 107.2 17.6 128 32 9.6 6.4 12.8 1.6 14.4-3.2 1.6-3.2 4.8-9.6-3.2-16zM504 118.4c11.2 9.6 28.8 25.6 46.4 32s25.6 6.4 41.6 6.4c16 0 32-1.6 44.8-9.6 11.2-8 19.2-25.6 22.4-35.2 4.8-9.6 0-16-8-19.2-6.4-3.2-8-1.6-14.4 11.2s-12.8 25.6-48 25.6c-35.2 0-44.8-11.2-62.4-25.6s-22.4-19.2-28.8-11.2c-6.4 8-4.8 16 6.4 25.6zM860.8 307.2c0-30.4-9.6-86.4-33.6-120-24-35.2-38.4-48-65.6-44.8-35.2 3.2-107.2 113.6-152 115.2-57.6 1.6-182.4-120-280-120-59.2 0-76.8 9.6-97.6 22.4-30.4 20.8-44.8 52.8-43.2 96 1.6 76.8 73.6 148.8 164.8 150.4 115.2 1.6 196.8-113.6 254.4-113.6 49.6 1.6 144 97.6 190.4 97.6 49.6-1.6 62.4-52.8 62.4-83.2z" />
<glyph unicode="&#xe627;" glyph-name="lightning-rain-sun" horiz-adv-x="991" d="M324.606 917.422h34.168v-136.208h-34.168v136.208zM0 594.286h136.208v-34.17h-136.208v34.17zM184.042 709.44l-96.331 96.331 24.159 24.159 96.331-96.331-24.159-24.159zM496.661 709.395l-24.157 24.157 96.3 96.3 24.157-24.157-96.3-96.3zM845.884 476.814c-24.678 115.186-126.984 201.592-249.53 201.592-37.322 0-72.738-8.026-104.658-22.44-28.48 54.708-85.54 92.146-151.474 92.146-94.348 0-170.844-76.48-170.844-170.83 0-42.026 15.366-80.332 40.542-110.064-24.41-31.436-39.074-70.792-39.074-113.666 0-102.222 82.62-185.124 184.726-185.628v-0.046h3.204v34.168l-3.036 0.050c-83.104 0.4-150.724 68.356-150.724 151.458 0 83.538 67.954 151.508 151.492 151.508 2.568 0 5.104-0.2 7.64-0.384l24.994-1.618 10.194 20.072c38.006 74.694 113.502 121.108 197.020 121.108 103.562 0 194.458-73.426 216.112-174.582l5.442-25.348 25.858-1.598c63.352-3.942 112.968-56.708 112.968-120.114 0-66.252-53.708-120.19-119.876-120.554-0.718 0.048-1.352 0.082-2.002 0.082l-14.798-0.082v-34.168h14v0.096c0.714-0.018 1.398-0.096 2.118-0.096 85.442 0 154.728 69.254 154.728 154.722-0.006 82.174-64.14 149.178-145.022 154.216zM368.886 538.612c-4.122 0.268-8.208 0.618-12.378 0.618-47.25 0-90.244-17.802-123.012-46.866-18.654 23.356-29.95 52.788-29.95 84.92 0 75.346 61.314 136.66 136.676 136.66 52.804 0 98.402-30.298 121.142-74.226-39.256-24.594-71.374-59.596-92.478-101.106zM358.558 253.46l109.598-156.498 27.962 19.606-109.58 156.512zM665.644 253.46l109.598-156.498 27.964 19.606-109.582 156.512zM612.126 116.568h71.92l-109.576 156.512-27.986-19.602 71.944-102.738h-71.944l119.594-170.848 27.996 19.588-78.866 112.688z" />
<glyph unicode="&#xe628;" glyph-name="ebay" d="M969.6 537.6l-86.4-174.4-88 174.4h-60.8l16-28.8c-20.8 30.4-60.8 38.4-97.6 38.4-108.8 0-115.2-59.2-115.2-68.8h54.4c0 0 3.2 35.2 57.6 35.2 35.2 0 64-16 64-48v-11.2h-64c-70.4 0-113.6-17.6-124.8-51.2 1.6 8 1.6 16 1.6 24 0 67.2-44.8 120-121.6 120-72 0-92.8-38.4-92.8-38.4v128h-52.8v-195.2c0 43.2-28.8 105.6-124.8 105.6-72 0-132.8-30.4-132.8-123.2 0-73.6 40-120 134.4-120 110.4 0 116.8 72 116.8 72h-52.8c0 0-11.2-38.4-67.2-38.4-44.8 0-78.4 30.4-78.4 73.6h204.8v-59.2c0-16-1.6-38.4-1.6-38.4h51.2c0 0 1.6 16 1.6 32 0 0 25.6-40 94.4-40 59.2 0 102.4 33.6 116.8 83.2 0-3.2 0-4.8 0-8 0-49.6 41.6-75.2 96-75.2 75.2 0 100.8 41.6 100.8 41.6 0-16 1.6-33.6 1.6-33.6h48c0 0-1.6 20.8-1.6 33.6v112c0 14.4-3.2 27.2-6.4 38.4l97.6-182.4-46.4-86.4h57.6l155.2 308.8h-54.4zM54.4 446.4c0 41.6 38.4 65.6 76.8 65.6 43.2 0 72-27.2 72-65.6h-148.8zM390.4 339.2c-52.8 0-80 41.6-80 86.4 0 41.6 25.6 86.4 80 86.4 49.6 0 80-36.8 80-84.8 0-52.8-36.8-88-80-88zM710.4 406.4c0-19.2-12.8-67.2-83.2-67.2-38.4 0-56 19.2-56 41.6 0 40 56 41.6 137.6 41.6v-16z" />
<glyph unicode="&#xe629;" glyph-name="lightning-rain-moon" horiz-adv-x="854" d="M709.204 527.334c-24.674 115.186-126.98 201.592-249.526 201.592-30.732 0-60.18-5.472-87.442-15.45-16.216 87.274-92.33 153.426-184.308 153.426-7.058 0-13.998-0.468-20.872-1.218 12.712-19.004 20.138-41.828 20.138-66.386 0-66.036-53.538-119.59-119.59-119.59-24.576 0-47.382 7.424-66.386 20.138-0.75-6.858-1.218-13.814-1.218-20.872 0-63.416 31.516-119.374 79.632-153.41-28.248-32.584-45.464-74.978-45.464-121.494 0-102.222 82.62-185.124 184.726-185.628v-0.044h3.204v34.162l-3.036 0.054c-83.104 0.396-150.724 68.352-150.724 151.458 0 83.538 67.954 151.508 151.492 151.508 2.57 0 5.104-0.2 7.64-0.382l2.538-0.168 22.456-1.452 10.194 20.072c38.006 74.694 113.502 121.108 197.022 121.108 103.556 0 194.454-73.426 216.108-174.582l5.442-25.342 25.862-1.602c63.35-3.936 112.966-56.708 112.966-120.11 0-66.254-53.708-120.194-119.876-120.562-0.714 0.054-1.35 0.086-2.002 0.086l-14.798-0.086v-34.164h13.998v0.096c0.718-0.014 1.4-0.096 2.122-0.096 85.438 0 154.728 69.254 154.728 154.726-0.008 82.17-64.14 149.172-145.026 154.212zM232.208 589.13c-4.122 0.266-8.208 0.616-12.378 0.616-43.346 0-83.122-14.966-114.72-39.876-34.37 22.106-59.578 57.292-67.92 98.686 9.942-2.002 20.122-3.020 30.416-3.020 84.788 0 153.76 68.972 153.76 153.76 0 10.294-1.018 20.47-3.020 30.416 63.784-12.864 113.252-65.334 121.86-130.538-46.318-24.654-84.156-63.194-107.998-110.044zM221.864 303.982l109.596-156.5 27.964 19.606-109.582 156.512zM528.954 303.982l109.594-156.5 27.962 19.606-109.58 156.512zM475.426 167.088h71.928l-109.582 156.512-27.978-19.602 71.94-102.738h-71.94l119.59-170.848 28 19.588-78.87 112.688z" />
<glyph unicode="&#xe62a;" glyph-name="etsy" horiz-adv-x="896" d="M305.6 484.8c0 8 0 14.4 0 20.8 0 113.6 0 228.8 0 342.4 0 25.6 0 25.6 27.2 25.6 102.4 0 203.2-1.6 304 0 41.6 0 68.8-17.6 86.4-52.8 8-16 14.4-32 19.2-48 8-28.8 14.4-57.6 24-86.4 1.6-6.4 8-14.4 14.4-16 16-1.6 30.4 0 48 0 8 97.6 12.8 193.6 19.2 289.6-284.8-24-566.4-12.8-849.6-8 0-17.6-1.6-35.2 0-51.2 1.6-4.8 9.6-11.2 14.4-12.8 20.8-4.8 43.2-8 64-12.8 51.2-9.6 64-25.6 65.6-76.8 1.6-91.2 3.2-182.4 3.2-275.2 0-147.2-1.6-294.4-3.2-441.6 0-8-1.6-16-3.2-24-1.6-17.6-12.8-28.8-27.2-35.2-9.6-4.8-20.8-8-32-9.6-27.2-6.4-52.8-11.2-78.4-16 0-22.4 0-41.6 0-60.8 11.2 0 20.8 0 30.4 0 70.4 1.6 140.8 6.4 212.8 6.4 196.8-1.6 395.2-4.8 592-6.4 25.6 0 25.6 0 27.2 24 8 67.2 16 136 24 203.2 3.2 25.6 6.4 49.6 9.6 76.8-11.2 0-20.8-1.6-28.8 0-19.2 3.2-28.8-4.8-36.8-24-16-40-33.6-80-52.8-120-24-48-60.8-80-116.8-81.6-91.2-3.2-182.4-4.8-275.2-1.6-59.2 1.6-81.6 30.4-81.6 89.6 0 96 0 190.4 0 286.4 0 8 0 14.4 1.6 22.4 3.2 1.6 4.8 1.6 6.4 1.6 64-1.6 128-1.6 192-3.2 33.6-1.6 60.8-14.4 70.4-51.2 4.8-16 8-32 11.2-48 11.2-43.2 11.2-43.2 56-43.2 16 0 19.2 6.4 19.2 19.2 0 107.2 1.6 214.4 3.2 321.6 0 9.6 0 17.6 0 27.2-17.6 0-32-1.6-46.4 0-11.2 1.6-16-4.8-19.2-14.4-6.4-27.2-12.8-54.4-19.2-81.6-9.6-36.8-22.4-48-60.8-49.6-27.2-1.6-54.4-4.8-83.2-4.8-43.2 0-86.4 0-131.2 0z" />
<glyph unicode="&#xe62b;" glyph-name="lightning-moon" horiz-adv-x="854" d="M709.204 518.824c-24.674 115.186-126.98 201.592-249.526 201.592-30.732 0-60.162-5.472-87.442-15.45-16.216 87.274-92.33 153.426-184.308 153.426-7.058 0-13.998-0.468-20.872-1.218 12.712-19.004 20.138-41.828 20.138-66.386 0-66.036-53.538-119.59-119.59-119.59-24.576 0-47.382 7.424-66.386 20.138-0.75-6.858-1.218-13.814-1.218-20.872 0-63.416 31.516-119.374 79.632-153.41-28.246-32.584-45.462-74.98-45.462-121.496 0-102.224 82.62-185.126 184.726-185.624v-0.050h71.542v34.168l-71.378 0.048c-83.104 0.402-150.724 68.358-150.724 151.458 0 83.54 67.954 151.508 151.492 151.508 2.57 0 5.104-0.2 7.64-0.382l2.538-0.168 22.456-1.452 10.194 20.072c38.006 74.694 113.502 121.11 197.022 121.11 103.556 0 194.456-73.428 216.108-174.584l5.442-25.342 25.862-1.602c63.35-3.936 112.966-56.712 112.966-120.108 0-66.25-53.708-120.192-119.876-120.562-0.716 0.050-1.35 0.086-2.002 0.086l-34.968-0.086h-65.25v-34.164h99.418v0.1c0.718-0.018 1.4-0.1 2.122-0.1 85.438 0 154.728 69.254 154.728 154.726-0.006 82.172-64.138 149.176-145.024 154.214zM232.208 580.622c-4.122 0.266-8.208 0.616-12.378 0.616-43.346 0-83.122-14.966-114.72-39.876-34.37 22.106-59.562 57.292-67.92 98.686 9.942-2.002 20.122-3.018 30.416-3.018 84.788 0 153.76 68.972 153.76 153.76 0 10.294-1.018 20.47-3.020 30.416 63.784-12.864 113.252-65.334 121.878-130.52-46.352-24.676-84.192-63.198-108.016-110.064zM441.492 209.768h71.926l-109.582 156.514-27.98-19.606 71.944-102.74h-71.944l40.728-58.178 102.124-146.836 27.996 19.586-102.126 146.856z" />
<glyph unicode="&#xe62c;" glyph-name="light" horiz-adv-x="513" d="M321.4 755.77l-35.368-295.808h156.33l-251.030-320.488 30.566 248.060 4.738 38.356h-157.498l252.262 329.88zM370.168 875.78l-370.168-484.058h187.996l-45.632-370.168 370.166 472.578h-187.992l45.63 381.648z" />
<glyph unicode="&#xe62d;" glyph-name="evernote" horiz-adv-x="864" d="M89.6 761.6c0 0 0 0 0 0h96c4.8 0 9.6 4.8 9.6 9.6 0 0-1.6 81.6-1.6 105.6v0c0 19.2 3.2 35.2 11.2 49.6l3.2 6.4c0 0 0 0-1.6 0l-185.6-185.6c0 0 0 0 0-1.6 3.2 1.6 9.6 4.8 9.6 4.8 16 8 35.2 11.2 59.2 11.2zM836.8 782.4c-8 41.6-32 60.8-54.4 68.8-24 8-72 17.6-132.8 24-48 6.4-105.6 4.8-140.8 4.8-4.8 28.8-24 54.4-46.4 64-59.2 24-150.4 17.6-174.4 11.2-19.2-4.8-40-16-51.2-32-8-11.2-12.8-25.6-12.8-44.8 0-11.2 0-36.8 0-60.8s0-44.8 0-44.8-17.6-38.4-38.4-38.4h-96c-20.8 0-36.8-3.2-48-9.6-8-4.8-16-12.8-22.4-20.8-12.8-17.6-14.4-38.4-14.4-60.8 0 0 0-17.6 4.8-52.8 3.2-27.2 32-212.8 59.2-268.8 11.2-22.4 17.6-30.4 38.4-40 46.4-19.2 152-41.6 201.6-48s80-19.2 99.2 19.2c0 0 3.2 9.6 8 24 16 49.6 17.6 92.8 17.6 123.2 0 3.2 4.8 3.2 4.8 0 0-22.4-4.8-100.8 54.4-121.6 24-8 72-16 121.6-20.8 44.8-4.8 76.8-22.4 76.8-137.6 0-68.8-14.4-78.4-91.2-78.4-62.4 0-84.8-1.6-84.8 48 0 40 40 35.2 68.8 35.2 12.8 0 3.2 9.6 3.2 33.6s16 38.4 1.6 38.4c-100.8 3.2-160 0-160-126.4 0-113.6 43.2-136 187.2-136 112 0 152 3.2 198.4 147.2 9.6 28.8 32 115.2 44.8 259.2 8 94.4-9.6 371.2-22.4 441.6zM641.6 475.2c-14.4 0-27.2 0-40-1.6 3.2 28.8 14.4 62.4 56 60.8 46.4-1.6 52.8-44.8 52.8-73.6-19.2 8-43.2 14.4-68.8 14.4z" />
<glyph unicode="&#xe62e;" glyph-name="facebook" horiz-adv-x="512" d="M380.8 764.8h131.2v195.2h-155.2c-187.2-8-225.6-113.6-228.8-224v0-97.6h-128v-190.4h128v-512h192v512h158.4l30.4 190.4h-188.8v59.2c0 36.8 25.6 67.2 60.8 67.2z" />
<glyph unicode="&#xe62f;" glyph-name="hurricane" horiz-adv-x="888" d="M826.474 653.030v0.65h-655.632c-18.836 0-34.168 15.334-34.168 34.168s15.334 34.168 34.168 34.168h563.79c47.184 0 85.424 38.24 85.424 85.422s-38.24 85.422-85.424 85.422l-647.076-0.134c-0.716 0.018-1.416 0.134-2.134 0.134-47.182 0-85.422-38.24-85.422-85.422s38.24-85.422 85.422-85.422v34.168c-28.262 0-51.254 22.992-51.254 51.254s22.992 51.252 51.254 51.252h649.21c28.266 0 51.254-22.99 51.254-51.252s-22.988-51.254-51.254-51.254h-563.79c-37.74 0-68.338-30.598-68.338-68.338s30.6-68.336 68.338-68.336h649.21c18.836 0 34.17-15.334 34.17-34.17s-15.334-34.168-34.17-34.168h-546.702c-37.74 0-68.338-30.6-68.338-68.338 0-37.744 30.598-68.338 68.338-68.338h375.858c18.838 0 34.17-15.334 34.17-34.168 0-18.836-15.332-34.174-34.17-34.174l-410.194-0.018c-37.656-0.098-68.17-30.626-68.17-68.316 0-37.692 30.514-68.222 68.17-68.322v-0.022h205.18c18.836 0 34.17-15.328 34.17-34.164 0-18.838-15.334-34.168-34.17-34.168h-34.168c-37.74 0-68.338-30.602-68.338-68.338 0-37.742 30.598-68.338 68.338-68.338v34.168c-18.836 0-34.17 15.33-34.17 34.17 0 18.836 15.334 34.166 34.17 34.166h34.168c37.742 0 68.336 30.6 68.336 68.34 0 37.738-30.596 68.34-68.336 68.34h-205.014c-18.836 0-34.168 15.332-34.168 34.168s15.332 34.168 34.168 34.168h410.026c37.74 0 68.338 30.602 68.338 68.34 0 36.77-29.114 66.536-65.502 68.050v0.286h-378.692c-18.836 0-34.168 15.334-34.168 34.17 0 18.834 15.334 34.168 34.168 34.168h546.702c37.738 0 68.34 30.598 68.34 68.338 0 35.54-27.23 64.404-61.918 67.69z" />
<glyph unicode="&#xe630;" glyph-name="firefox" d="M883.2 196.8c28.8 52.8 67.2 84.8 88 120 27.2 48 80 185.6 40 296 17.6-68.8 12.8-139.2-44.8-174.4 17.6 48 30.4 156.8 11.2 252.8-12.8 62.4-51.2 118.4-76.8 136 24-17.6 43.2-81.6 41.6-110.4-51.2 84.8-131.2 163.2-252.8 196.8 94.4-62.4 129.6-115.2 152-161.6-25.6 25.6-68.8 52.8-97.6 54.4 43.2-32 116.8-129.6 108.8-275.2-11.2 24-32 60.8-46.4 73.6 16-144 1.6-174.4-8-212.8-1.6 17.6-8 30.4-11.2 38.4 0 0-1.6-44.8-30.4-108.8-22.4-48-44.8-64-54.4-62.4s-3.2 9.6-4.8 19.2c0 0-14.4-8-30.4-22.4-14.4-14.4-27.2-32-33.6-27.2 4.8 4.8 8 11.2 12.8 17.6-4.8-3.2-19.2-14.4-51.2-19.2-12.8-1.6-68.8-11.2-142.4 25.6 11.2 1.6 27.2 4.8 40-1.6-12.8 12.8-41.6 11.2-64 17.6-19.2 6.4-43.2 32-57.6 44.8 57.6-14.4 116.8-3.2 152 20.8s56 41.6 75.2 38.4c19.2-4.8 32 14.4 16 32-14.4 16-49.6 40-97.6 27.2-41.6-9.6-75.2-46.4-139.2-8-54.4 32-54.4 59.2-54.4 75.2 0 11.2 6.4 27.2 20.8 35.2 6.4-3.2 11.2-4.8 11.2-4.8s-3.2 4.8-4.8 8c0 0 1.6 0 1.6 0 6.4-1.6 19.2-6.4 25.6-9.6 9.6-4.8 11.2-9.6 11.2-9.6s1.6 1.6 0 6.4c-1.6 1.6-4.8 8-12.8 12.8 0 0 0 0 0 0 4.8-1.6 9.6-4.8 14.4-8 1.6 8 4.8 16 3.2 30.4-1.6 9.6-1.6 12.8-3.2 16s0 4.8 3.2 1.6c-1.6 1.6-1.6 4.8-3.2 8v0c3.2 12.8 76.8 51.2 81.6 54.4 8 4.8 16 14.4 20.8 24 3.2 6.4 6.4 16 4.8 28.8 0 9.6-6.4 14.4-84.8 14.4-20.8 0-35.2 12.8-44.8 24-1.6 3.2-3.2 4.8-4.8 8s-3.2 6.4-4.8 8c9.6 33.6 28.8 64 57.6 88 1.6 1.6-6.4-1.6-4.8 0s14.4 8 16 9.6c3.2 1.6-12.8 6.4-27.2 3.2s-17.6-4.8-24-8c3.2 3.2 12.8 8 9.6 8-16-3.2-33.6-14.4-49.6-24 0 1.6 0 3.2 0 4.8-8-3.2-25.6-17.6-28.8-27.2 0 1.6 0 3.2 0 6.4-4.8-4.8-9.6-9.6-14.4-16 0 0 0 0 0 0-46.4 11.2-84.8 8-118.4-1.6-8 4.8-20.8 14.4-40 44.8 0-3.2 0-9.6-1.6-6.4-8 12.8-14.4 36.8-14.4 54.4 0 0-12.8-8-20.8-33.6-1.6-4.8-3.2-8-3.2-9.6s0 8 0 8c-1.6-4.8-6.4-9.6-8-16-1.6-3.2-3.2-6.4-3.2-11.2 0 0 0 0 0 0 0 1.6 0 6.4 0 4.8-4.8-9.6-8-20.8-11.2-33.6-4.8-19.2-8-46.4-4.8-81.6 0-3.2 0-4.8 0-8-12.8-17.6-20.8-32-24-38.4-14.4-28.8-30.4-75.2-43.2-145.6 0 0 8 27.2 25.6 56-12.8-38.4-22.4-96-16-185.6 0 3.2 3.2 25.6 9.6 54.4 3.2-59.2 17.6-131.2 62.4-209.6 35.2-59.2 126.4-198.4 356.8-249.6-25.6 8-41.6 22.4-41.6 22.4s86.4-27.2 148.8-25.6c-19.2 3.2-24 12.8-24 12.8s222.4-12.8 300.8 92.8c-27.2-30.4-92.8-40-118.4-40 38.4 35.2 123.2 35.2 216 124.8 51.2 49.6 56 88 60.8 123.2-8-44.8-52.8-73.6-97.6-97.6z" />
<glyph unicode="&#xe631;" glyph-name="fog-moon" horiz-adv-x="871" d="M17.088 320.8h854.224v-34.172h-854.224v34.172zM85.424 218.292h751.718v-34.168h-751.718v34.168zM187.932 132.872h512.534v-34.17h-512.534v34.17zM51.256 423.304h785.886v-34.168h-785.886v34.168zM79.318 457.476h50.836c25.142 18.57 56.092 29.68 89.676 29.68 2.57 0 5.106-0.2 7.642-0.382l24.994-1.62 10.192 20.072c38.006 74.694 113.502 121.108 197.022 121.108 101.574 0 190.8-70.706 214.624-168.858h34.902v1.434c-24.674 115.186-126.98 201.594-249.528 201.594-30.732 0-60.164-5.472-87.422-15.432-16.15 87.324-92.296 153.544-184.326 153.544-7.058 0-13.998-0.468-20.874-1.22 12.714-19.002 20.138-41.826 20.138-66.384 0-66.036-53.538-119.59-119.59-119.59-24.576 0-47.382 7.424-66.386 20.136-0.75-6.856-1.218-13.814-1.218-20.872 0.002-63.282 31.368-119.156 79.318-153.21zM67.606 577.25c84.788 0 153.76 68.974 153.76 153.762 0 10.294-1.018 20.47-3.020 30.414 63.818-12.862 113.32-65.402 121.878-130.652-46.332-24.66-84.17-63.2-108.012-110.066-4.122 0.266-8.208 0.618-12.38 0.618-43.296 0-82.954-15.016-114.486-39.892-34.502 22.090-59.794 57.342-68.154 98.836 9.942-2 20.12-3.020 30.414-3.020z" />
<glyph unicode="&#xe632;" glyph-name="drizzle" horiz-adv-x="905" d="M427.114 337.468h34.168v-119.594h-34.168v119.594zM563.79 405.8h34.168v-119.59h-34.168v119.59zM290.438 405.8h34.168v-119.59h-34.168v119.59zM427.114 166.622h34.168v-119.592h-34.168v119.592zM563.79 234.96h34.168v-119.594h-34.168v119.594zM290.438 234.96h34.168v-119.594h-34.168v119.594zM745.362 627.704c-27.262 127.2-140.21 222.598-275.522 222.598-109.732 0-204.616-62.832-251.178-154.36-4.54 0.3-9.058 0.684-13.664 0.684-113.218 0-204.998-91.78-204.998-205.014 0-112.89 91.228-204.416 203.962-204.984v-0.046h35.22v34.168h-27.412l-7.642 0.050c-93.714 0.464-169.96 77.096-169.96 170.812 0 94.198 76.628 170.844 170.828 170.844 2.986 0 5.922-0.234 8.876-0.432l2.536-0.166 22.49-1.502 10.212 20.088c42.578 83.704 127.166 135.692 220.732 135.692 116.004 0 217.824-82.252 242.118-195.586l5.424-25.326 25.862-1.62c71.806-4.47 128.066-64.284 128.066-136.176 0-75.126-60.916-136.276-135.946-136.676-0.848 0.048-1.586 0.082-2.334 0.12l-34.902-0.12h-48.92v-34.168h83.088v0.12c0.786-0.022 1.552-0.12 2.338-0.12 94.328 0 170.842 76.474 170.842 170.844 0 90.726-70.806 164.72-160.116 170.276z" />
<glyph unicode="&#xe633;" glyph-name="flattr" d="M368 960c-243.2 0-368-140.8-368-401.6v0-548.8l238.4 238.4v278.4c0 108.8 28.8 177.6 124.8 193.6v0c33.6 6.4 104 4.8 148.8 4.8v0-164.8c0-1.6 0-4.8 0-4.8v0c1.6-6.4 8-11.2 14.4-11.2v0c4.8 0 8 1.6 11.2 6.4v0l414.4 409.6h-584zM785.6 648v-278.4c0-108.8-28.8-177.6-124.8-193.6v0c-33.6-6.4-104-4.8-148.8-4.8v0 166.4c0 1.6 0 4.8 0 4.8v0c-1.6 6.4-8 11.2-14.4 11.2v0c-4.8 0-8-1.6-11.2-6.4v0l-414.4-411.2h584c243.2 0 368 140.8 368 401.6v0 548.8l-238.4-238.4z" />
<glyph unicode="&#xe634;" glyph-name="drizzle-sun" horiz-adv-x="991" d="M324.606 943.034h34.168v-136.21h-34.168v136.21zM0 619.896h136.208v-34.168h-136.208v34.168zM184.043 735.052l-96.331 96.331 24.157 24.157 96.331-96.331-24.157-24.157zM496.635 734.995l-24.156 24.156 96.297 96.297 24.156-24.156-96.297-96.297zM563.79 244.736h34.168v-119.592h-34.168v119.592zM700.464 313.074h34.17v-119.59h-34.17v119.59zM427.112 313.074h34.17v-119.59h-34.17v119.59zM563.79 73.892h34.168v-119.592h-34.168v119.592zM700.464 142.23h34.17v-119.592h-34.17v119.592zM427.112 142.23h34.17v-119.592h-34.17v119.592zM845.884 502.424c-24.678 115.186-126.98 201.594-249.53 201.594-37.322 0-72.738-8.026-104.658-22.44-28.48 54.708-85.54 92.144-151.474 92.144-94.348 0-170.844-76.478-170.844-170.828 0-42.026 15.366-80.334 40.542-110.064-24.41-31.434-39.074-70.792-39.074-113.67 0-102.222 82.62-185.124 184.726-185.628v-0.044h20.288v34.168h-12.312l-7.808 0.048c-83.104 0.396-150.724 68.356-150.724 151.458 0 83.538 67.954 151.51 151.492 151.51 2.568 0 5.104-0.202 7.64-0.384l24.994-1.616 10.194 20.070c38.006 74.696 113.502 121.108 197.020 121.108 103.562 0 194.458-73.426 216.112-174.582l5.442-25.342 25.858-1.602c63.352-3.938 112.968-56.71 112.968-120.11 0-66.254-53.708-120.196-119.876-120.558-0.718 0.050-1.352 0.082-2.002 0.082l-48.968-0.082v-34.168h48.17v0.098c0.714-0.016 1.398-0.098 2.118-0.098 85.442 0 154.728 69.256 154.728 154.726-0.006 82.164-64.14 149.17-145.022 154.21zM368.886 564.22c-4.122 0.268-8.208 0.618-12.378 0.618-47.25 0-90.244-17.786-123.012-46.866-18.654 23.34-29.95 52.79-29.95 84.922 0 75.344 61.314 136.66 136.676 136.66 52.804 0 98.402-30.298 121.142-74.23-39.256-24.606-71.374-59.592-92.478-101.104z" />
<glyph unicode="&#xe635;" glyph-name="flickr" d="M225.6 672c-124.8 0-225.6-100.8-225.6-224s100.8-224 225.6-224c124.8 0 225.6 100.8 225.6 224-1.6 123.2-102.4 224-225.6 224zM800 672c-123.2 0-224-100.8-224-224s100.8-224 224-224c123.2 0 224 100.8 224 224s-100.8 224-224 224z" />
<glyph unicode="&#xe636;" glyph-name="drizzle-moon" horiz-adv-x="854" d="M427.11 295.256h34.17v-119.592h-34.17v119.592zM563.786 363.594h34.172v-119.592h-34.172v119.592zM290.434 363.594h34.17v-119.592h-34.17v119.592zM427.11 124.412h34.17v-119.592h-34.17v119.592zM563.786 192.75h34.172v-119.592h-34.172v119.592zM290.434 192.75h34.17v-119.592h-34.17v119.592zM709.204 552.944c-24.674 115.186-126.98 201.592-249.526 201.592-30.732 0-60.18-5.472-87.442-15.45-16.216 87.274-92.33 153.426-184.308 153.426-7.058 0-13.998-0.468-20.872-1.218 12.712-19.004 20.138-41.828 20.138-66.386 0-66.036-53.538-119.592-119.59-119.592-24.576 0-47.382 7.424-66.386 20.138-0.75-6.858-1.218-13.814-1.218-20.872 0-63.416 31.516-119.374 79.632-153.41-28.246-32.584-45.462-74.978-45.462-121.494 0-102.224 82.62-185.126 184.726-185.63v-0.048h20.288v34.17h-12.312l-7.808 0.048c-83.104 0.398-150.724 68.356-150.724 151.458 0 83.536 67.954 151.508 151.492 151.508 2.57 0 5.104-0.202 7.64-0.384l24.994-1.616 10.194 20.070c38.006 74.696 113.502 121.11 197.022 121.11 103.556 0 194.456-73.426 216.108-174.582l5.442-25.342 25.862-1.602c63.35-3.936 112.966-56.708 112.966-120.112 0-66.25-53.708-120.19-119.876-120.556-0.716 0.050-1.35 0.082-2.002 0.082l-48.968-0.082v-34.17h48.168v0.1c0.718-0.016 1.4-0.1 2.122-0.1 85.438 0 154.728 69.258 154.728 154.726-0.010 82.176-64.142 149.178-145.028 154.218zM232.208 614.74c-4.122 0.268-8.208 0.618-12.378 0.618-43.346 0-83.122-14.966-114.72-39.876-34.37 22.106-59.578 57.294-67.92 98.686 9.942-2.002 20.122-3.020 30.416-3.020 84.788 0 153.76 68.972 153.76 153.762 0 10.294-1.018 20.47-3.020 30.414 63.784-12.864 113.252-65.334 121.86-130.518-46.318-24.676-84.156-63.2-107.998-110.066z" />
<glyph unicode="&#xe637;" glyph-name="forrst" horiz-adv-x="960" d="M512-64h448l-480 1024-480-1024h449.6v166.4l-107.2 80 19.2 75.2 88-64v188.8h62.4v-96l84.8 54.4 17.6-64-102.4-64v-72l164.8 81.6 14.4-78.4-179.2-88z" />
<glyph unicode="&#xe638;" glyph-name="drizzle-alt" horiz-adv-x="905" d="M427.114 256.214h34.168v-68.34h-34.168v68.34zM563.79 324.922h34.168v-68.708h-34.168v68.708zM290.438 324.922h34.168v-68.708h-34.168v68.708zM745.362 597.706c-27.262 127.198-140.21 222.598-275.522 222.598-109.732 0-204.616-62.832-251.178-154.36-4.54 0.3-9.058 0.684-13.664 0.684-113.218 0-204.998-91.78-204.998-205.014 0-112.884 91.228-204.412 203.962-204.982v-0.048h35.22v34.168h-27.412l-7.642 0.048c-93.714 0.466-169.96 77.102-169.96 170.814 0 94.2 76.628 170.844 170.828 170.844 2.986 0 5.922-0.234 8.876-0.432l2.536-0.166 22.49-1.502 10.212 20.088c42.578 83.704 127.166 135.692 220.732 135.692 116.004 0 217.824-82.252 242.118-195.586l5.424-25.328 25.862-1.618c71.806-4.472 128.066-64.286 128.066-136.178 0-75.124-60.916-136.276-135.946-136.676-0.848 0.048-1.586 0.086-2.334 0.12l-34.902-0.12h-48.92v-34.168h83.088v0.12c0.786-0.018 1.552-0.12 2.338-0.12 94.328 0 170.842 76.48 170.842 170.844 0 90.728-70.806 164.722-160.116 170.278zM580.874 196.066c-14.15 0-25.626-11.458-25.626-25.624 0-14.162 11.476-25.624 25.626-25.624 14.146 0 25.626 11.46 25.626 25.624 0.006 14.168-11.48 25.624-25.626 25.624zM444.198 128.266c-14.148 0-25.626-11.46-25.626-25.624 0-14.166 11.478-25.624 25.626-25.624 14.152 0 25.626 11.458 25.626 25.624 0.002 14.16-11.476 25.624-25.626 25.624zM307.522 196.79c-14.148 0-25.626-11.46-25.626-25.628 0-14.164 11.478-25.626 25.626-25.626s25.626 11.462 25.626 25.626c0 14.164-11.478 25.628-25.626 25.628z" />
<glyph unicode="&#xe639;" glyph-name="foursquare" horiz-adv-x="736" d="M644.8 960c0 0-470.4 0-545.6 0s-97.6-56-97.6-92.8c0-35.2 0-867.2 0-867.2 0-40 22.4-54.4 33.6-60.8 12.8-4.8 46.4-9.6 65.6 14.4 0 0 257.6 299.2 262.4 304 6.4 6.4 6.4 6.4 12.8 6.4 12.8 0 112 0 166.4 0 70.4 0 81.6 49.6 88 80 6.4 24 75.2 374.4 97.6 486.4 19.2 83.2-3.2 129.6-83.2 129.6zM632 344c6.4 24 75.2 374.4 97.6 486.4zM612.8 812.8l-22.4-120c-3.2-12.8-19.2-27.2-33.6-27.2s-212.8 0-212.8 0c-24 0-41.6-16-41.6-40v-25.6c0-24 17.6-41.6 41.6-41.6 0 0 163.2 0 180.8 0s33.6-19.2 30.4-36.8c-3.2-17.6-20.8-107.2-22.4-116.8s-12.8-27.2-33.6-27.2c-17.6 0-147.2 0-147.2 0-27.2 0-35.2-3.2-52.8-25.6s-179.2-216-179.2-216c-1.6-1.6-3.2-1.6-3.2 0v678.4c0 16 12.8 33.6 33.6 33.6 0 0 420.8 0 438.4 0 12.8-1.6 27.2-16 24-35.2z" />
<glyph unicode="&#xe63a;" glyph-name="drizzle-alt-sun" horiz-adv-x="991" d="M324.606 913.168h34.168v-136.208h-34.168v136.208zM0 590.030h136.208v-34.166h-136.208v34.166zM184.041 705.185l-96.331 96.331 24.16 24.16 96.331-96.331-24.16-24.16zM496.642 705.132l-24.156 24.156 96.299 96.299 24.156-24.156-96.299-96.299zM845.884 472.558c-24.678 115.186-126.98 201.592-249.53 201.592-37.322 0-72.738-8.024-104.658-22.44-28.48 54.706-85.54 92.146-151.474 92.146-94.348 0-170.844-76.48-170.844-170.828 0-42.028 15.366-80.334 40.542-110.066-24.41-31.434-39.074-70.792-39.074-113.668 0-102.22 82.62-185.124 184.726-185.626v-0.050h20.288v34.174h-12.312l-7.808 0.044c-83.104 0.4-150.724 68.358-150.724 151.458 0 83.538 67.954 151.508 151.492 151.508 2.568 0 5.104-0.2 7.64-0.384l24.994-1.616 10.194 20.070c38.006 74.694 113.502 121.11 197.020 121.11 103.562 0 194.458-73.426 216.112-174.584l5.442-25.344 25.858-1.602c63.352-3.938 112.968-56.708 112.968-120.11 0-66.254-53.708-120.194-119.876-120.558-0.718 0.046-1.352 0.082-2.002 0.082l-48.968-0.082v-34.172h48.17v0.104c0.714-0.018 1.398-0.104 2.118-0.104 85.442 0 154.728 69.258 154.728 154.73-0.006 82.172-64.14 149.178-145.022 154.216zM368.886 534.356c-4.122 0.266-8.208 0.616-12.378 0.616-47.25 0-90.244-17.802-123.012-46.864-18.654 23.358-29.95 52.79-29.95 84.922 0 75.344 61.314 136.658 136.676 136.658 52.804 0 98.402-30.298 121.142-74.226-39.256-24.592-71.374-59.596-92.478-101.106zM563.79 163.354h34.168v-68.342h-34.168v68.342zM700.464 232.058h34.17v-68.708h-34.17v68.708zM427.112 232.058h34.17v-68.708h-34.17v68.708zM717.548 103.206c-14.13 0-25.624-11.458-25.624-25.624 0-14.162 11.494-25.626 25.624-25.626 14.132 0 25.628 11.464 25.628 25.626 0 14.164-11.496 25.624-25.628 25.624zM580.872 35.402c-14.126 0-25.624-11.464-25.624-25.626 0-14.166 11.496-25.624 25.624-25.624 14.132 0 25.628 11.458 25.628 25.624 0 14.162-11.496 25.626-25.628 25.626zM444.196 103.924c-14.132 0-25.626-11.46-25.626-25.626 0-14.162 11.494-25.624 25.626-25.624 14.13 0 25.626 11.462 25.626 25.624 0.002 14.162-11.494 25.626-25.626 25.626z" />
<glyph unicode="&#xe63b;" glyph-name="git" horiz-adv-x="960" d="M203.2 712c-51.2 0-94.4-17.6-131.2-51.2-38.4-35.2-57.6-80-57.6-134.4 0-35.2 9.6-68.8 32-100.8 19.2-28.8 38.4-48 64-56v-1.6c-25.6-11.2-36.8-36.8-36.8-78.4 0-32 11.2-56 36.8-72v-1.6c-70.4-22.4-102.4-65.6-102.4-129.6 0-54.4 24-94.4 70.4-120 35.2-20.8 81.6-30.4 139.2-30.4 137.6 0 208 57.6 208 174.4 0 72-52.8 116.8-160 132.8-24 3.2-43.2 12.8-56 27.2-9.6 9.6-14.4 19.2-14.4 28.8 0 27.2 14.4 43.2 44.8 48 44.8 6.4 83.2 27.2 112 64 28.8 35.2 43.2 76.8 43.2 124.8 0 14.4-4.8 30.4-11.2 48 19.2 4.8 33.6 8 43.2 12.8v115.2c-44.8-17.6-86.4-27.2-123.2-27.2-32 17.6-64 27.2-100.8 27.2zM216 152c62.4 0 94.4-19.2 94.4-57.6 0-40-28.8-60.8-86.4-60.8-65.6 0-99.2 19.2-99.2 57.6 0 41.6 30.4 60.8 91.2 60.8zM208 448c-46.4 0-70.4 25.6-70.4 76.8 0 56 24 83.2 70.4 83.2 22.4 0 40-8 52.8-25.6 11.2-16 16-33.6 16-56 0-52.8-24-78.4-68.8-78.4zM548.8 960c-22.4 0-40-8-56-24s-22.4-36.8-22.4-59.2c0-22.4 8-41.6 22.4-57.6 16-16 33.6-24 56-24 20.8 0 38.4 8 54.4 24s22.4 35.2 22.4 57.6c0 22.4-8 43.2-22.4 59.2-16 16-33.6 24-54.4 24zM611.2 704h-126.4c1.6-14.4 0-36.8 0-70.4v-348.8c0-35.2 1.6-64 0-76.8h126.4c-1.6 16-4.8 44.8-4.8 83.2v344c0 32 3.2 54.4 4.8 68.8zM889.6 315.2c-33.6 0-49.6 25.6-49.6 75.2v206.4h49.6c9.6 0 17.6 0 27.2 0s14.4 0 19.2 0v107.2h-96v48c0 17.6 3.2 33.6 4.8 44.8h-129.6c1.6-9.6 1.6-25.6 1.6-46.4v-46.4h-56v-107.2c16 1.6 28.8 3.2 38.4 3.2l17.6-1.6v-201.6c0-62.4 8-108.8 24-137.6 20.8-38.4 57.6-57.6 112-57.6 38.4 0 73.6 8 99.2 22.4v112c-19.2-14.4-38.4-20.8-62.4-20.8z" />
<glyph unicode="&#xe63c;" glyph-name="github" d="M512 947.2c-283.2 0-512-228.8-512-512 0-225.6 147.2-417.6 350.4-486.4 25.6-4.8 35.2 11.2 35.2 24s0 52.8 0 96c-142.4-30.4-172.8 60.8-172.8 60.8-24 59.2-57.6 75.2-57.6 75.2-46.4 32 3.2 30.4 3.2 30.4 51.2-3.2 78.4-52.8 78.4-52.8 46.4-78.4 120-56 148.8-43.2 4.8 33.6 17.6 56 32 68.8-113.6 12.8-233.6 57.6-233.6 252.8 0 56 19.2 100.8 52.8 137.6-4.8 12.8-22.4 65.6 4.8 136 0 0 43.2 14.4 140.8-52.8 41.6 11.2 84.8 17.6 128 17.6s88-6.4 128-17.6c97.6 65.6 140.8 52.8 140.8 52.8 27.2-70.4 9.6-123.2 4.8-136 33.6-35.2 52.8-81.6 52.8-137.6 0-196.8-120-240-233.6-252.8 17.6-16 35.2-46.4 35.2-94.4 0-68.8 0-123.2 0-140.8 0-14.4 9.6-28.8 35.2-24 203.2 68.8 350.4 260.8 350.4 486.4 0 283.2-228.8 512-512 512zM193.6 212.8c-1.6-3.2-4.8-3.2-8-1.6s-6.4 4.8-4.8 8c1.6 3.2 4.8 3.2 9.6 1.6 3.2-3.2 4.8-6.4 3.2-8v0zM214.4 188.8c-3.2-1.6-8-1.6-11.2 1.6s-3.2 8-1.6 11.2c3.2 1.6 6.4 1.6 11.2-1.6 3.2-3.2 4.8-8 1.6-11.2v0zM235.2 160c-3.2-1.6-8 0-11.2 4.8s-3.2 9.6 0 12.8c3.2 1.6 8 0 11.2-4.8s3.2-11.2 0-12.8v0zM262.4 131.2c-3.2-3.2-8-1.6-12.8 1.6-4.8 4.8-6.4 9.6-3.2 12.8s9.6 1.6 12.8-1.6c4.8-3.2 6.4-9.6 3.2-12.8v0zM300.8 115.2c-1.6-4.8-6.4-6.4-12.8-4.8s-9.6 6.4-8 11.2c1.6 4.8 6.4 6.4 12.8 4.8 4.8-3.2 9.6-8 8-11.2v0zM342.4 112c0-4.8-4.8-8-11.2-8s-11.2 3.2-11.2 8c0 4.8 4.8 8 11.2 8 6.4-1.6 11.2-4.8 11.2-8v0zM380.8 118.4c0-4.8-3.2-8-9.6-9.6s-11.2 1.6-12.8 4.8c0 4.8 3.2 8 9.6 9.6 8 1.6 12.8-1.6 12.8-4.8v0z" />
<glyph unicode="&#xe63d;" glyph-name="drizzle-alt-moon" horiz-adv-x="854" d="M709.204 523.078c-24.674 115.188-126.98 201.592-249.526 201.592-30.732 0-60.18-5.472-87.442-15.45-16.216 87.274-92.33 153.426-184.308 153.426-7.058 0-13.998-0.466-20.872-1.218 12.712-19.002 20.138-41.828 20.138-66.386 0-66.036-53.538-119.592-119.59-119.592-24.576 0-47.382 7.424-66.386 20.138-0.75-6.858-1.218-13.816-1.218-20.872 0-63.416 31.516-119.376 79.632-153.412-28.246-32.584-45.462-74.982-45.462-121.496 0-102.22 82.62-185.124 184.726-185.626v-0.048h20.288v34.172h-12.312l-7.808 0.044c-83.104 0.4-150.724 68.358-150.724 151.458 0 83.54 67.954 151.51 151.492 151.51 2.57 0 5.104-0.2 7.64-0.384l24.994-1.618 10.194 20.070c38.006 74.694 113.502 121.11 197.022 121.11 103.556 0 194.456-73.426 216.108-174.584l5.442-25.342 25.862-1.602c63.35-3.938 112.966-56.71 112.966-120.108 0-66.254-53.708-120.194-119.876-120.558-0.716 0.046-1.35 0.082-2.002 0.082l-48.968-0.082v-34.172h48.168v0.104c0.718-0.018 1.4-0.104 2.122-0.104 85.438 0 154.728 69.258 154.728 154.73-0.010 82.176-64.142 149.18-145.028 154.218zM232.208 584.876c-4.122 0.266-8.208 0.616-12.378 0.616-43.346 0-83.122-14.964-114.72-39.874-34.37 22.104-59.578 57.292-67.92 98.684 9.942-2.002 20.122-3.018 30.416-3.018 84.788 0 153.76 68.972 153.76 153.76 0 10.294-1.018 20.472-3.020 30.416 63.784-12.864 113.252-65.334 121.86-130.536-46.318-24.66-84.156-63.2-107.998-110.048zM427.11 213.876h34.17v-68.344h-34.17v68.344zM563.786 282.576h34.172v-68.706h-34.172v68.706zM290.434 282.576h34.17v-68.706h-34.17v68.706zM580.876 153.724c-14.132 0-25.628-11.458-25.628-25.626 0-14.164 11.496-25.624 25.628-25.624 14.128 0 25.624 11.46 25.624 25.624-0.002 14.168-11.496 25.626-25.624 25.626zM444.196 85.922c-14.132 0-25.626-11.464-25.626-25.624 0-14.168 11.494-25.626 25.626-25.626 14.13 0 25.626 11.458 25.626 25.626 0 14.16-11.496 25.624-25.626 25.624zM307.518 154.444c-14.132 0-25.626-11.46-25.626-25.626 0-14.162 11.494-25.624 25.626-25.624 14.13 0 25.626 11.462 25.626 25.624 0.002 14.162-11.494 25.626-25.626 25.626z" />
<glyph unicode="&#xe63e;" glyph-name="google-drive" d="M459.2 300.8l-171.2-296h564.8l171.2 296h-564.8zM976 384l-292.8 507.2h-342.4l292.8-507.2h342.4zM292.8 808l-292.8-507.2 171.2-296 292.8 507.2-171.2 296z" />
<glyph unicode="&#xe63f;" glyph-name="google-plus" horiz-adv-x="960" d="M547.2 368c-104 73.6-144 108.8-76.8 168s120 107.2 120 216c0 108.8-91.2 164.8-91.2 164.8s65.6-9.6 100.8 9.6c35.2 19.2 49.6 32 49.6 32h-332.8c-65.6 1.6-251.2-73.6-251.2-251.2s192-214.4 262.4-211.2c-38.4-48-6.4-91.2 16-113.6 20.8-22.4 16-28.8-8-28.8-27.2-1.6-336-4.8-336-225.6s411.2-236.8 545.6-118.4c136 120 105.6 283.2 1.6 358.4zM348.8 539.2c-164.8 0-240 387.2-44.8 387.2 152 4.8 265.6-387.2 44.8-387.2zM329.6-3.2c-137.6 0-211.2 68.8-211.2 171.2s100.8 153.6 288 153.6c51.2-40 142.4-86.4 142.4-182.4s-81.6-142.4-219.2-142.4zM835.2 832v124.8h-65.6v-124.8h-128v-65.6h128v-126.4h65.6v126.4h124.8v65.6h-124.8z" />
<glyph unicode="&#xe640;" glyph-name="compass-north" horiz-adv-x="444" d="M222.098 670.764c-122.644 0-222.098-99.436-222.098-222.098 0-122.66 99.454-222.1 222.098-222.1s222.096 99.44 222.096 222.1c0.002 122.662-99.452 222.098-222.096 222.098zM222.098 260.738c-103.624 0-187.93 84.29-187.93 187.928 0 103.61 84.304 187.93 187.93 187.93 103.624 0 187.93-84.322 187.93-187.93 0.002-103.638-84.306-187.928-187.93-187.928zM265.864 475.628l-44.178 75.546-43.214-73.978h0.118c-5.106-7.976-8.16-17.384-8.16-27.562 0-28.298 22.94-51.254 51.254-51.254 28.31 0 51.252 22.958 51.252 51.254 0 9.542-2.77 18.352-7.304 25.992l0.232 0.002zM221.682 432.546c-9.426 0-17.086 7.676-17.086 17.086 0 3.204 0.934 6.272 2.77 9.142l14.764 23.158 14.116-23.758c1.666-2.804 2.518-5.674 2.518-8.542 0.002-9.41-7.654-17.086-17.082-17.086z" />
<glyph unicode="&#xe641;" glyph-name="grooveshark" d="M534.4-64c-14.4 0-30.4 0-44.8 0 0 0-1.6 0-1.6 0-20.8 1.6-40 3.2-60.8 6.4-52.8 8-104 25.6-150.4 49.6-78.4 41.6-144 99.2-192 174.4-51.2 78.4-78.4 163.2-83.2 256 0 1.6 0 1.6 0 3.2 0 14.4 0 30.4 0 44.8 0 0 0 1.6 0 1.6 0 9.6 1.6 17.6 1.6 27.2 3.2 38.4 11.2 76.8 24 113.6 33.6 99.2 92.8 182.4 177.6 244.8 83.2 62.4 177.6 96 283.2 102.4 1.6 0 1.6 0 1.6 0 14.4 0 30.4 0 44.8 0 0 0 1.6 0 1.6 0 20.8-1.6 40-3.2 60.8-6.4 52.8-9.6 104-25.6 150.4-51.2 80-41.6 144-99.2 193.6-174.4 51.2-76.8 78.4-161.6 81.6-254.4 0-1.6 0-1.6 0-3.2 0-14.4 0-30.4 0-44.8 0 0 0-1.6 0-1.6-1.6-20.8-3.2-40-6.4-60.8-8-52.8-25.6-104-49.6-150.4-41.6-78.4-99.2-144-174.4-192-78.4-51.2-163.2-78.4-256-83.2 0-1.6 0-1.6-1.6-1.6zM512 854.4c-4.8 0-11.2 0-16 0-30.4-1.6-59.2-4.8-88-12.8-68.8-19.2-129.6-54.4-180.8-104-51.2-51.2-86.4-110.4-105.6-180.8-11.2-38.4-14.4-78.4-14.4-118.4 0-11.2 1.6-22.4 3.2-33.6 6.4-24 20.8-38.4 46.4-43.2 16-3.2 32 1.6 48 8 24 9.6 43.2 25.6 60.8 43.2 22.4 24 40 49.6 49.6 80 14.4 40 19.2 80 19.2 121.6 0 20.8-1.6 41.6-3.2 64-1.6 19.2-4.8 40-6.4 59.2-1.6 8 1.6 11.2 9.6 8 6.4-1.6 12.8-3.2 19.2-6.4 43.2-12.8 83.2-30.4 121.6-57.6 51.2-35.2 94.4-76.8 136-123.2 38.4-41.6 72-86.4 104-132.8 16-22.4 33.6-41.6 54.4-59.2 20.8-16 43.2-28.8 68.8-33.6 24-4.8 44.8 4.8 57.6 25.6 8 12.8 12.8 27.2 14.4 41.6 4.8 28.8 4.8 57.6 1.6 86.4-3.2 32-9.6 64-20.8 94.4-25.6 72-67.2 132.8-126.4 180.8-72 62.4-156.8 92.8-252.8 92.8z" />
<glyph unicode="&#xe642;" glyph-name="compass-east" horiz-adv-x="444" d="M222.098 670.764c-122.662 0-222.098-99.436-222.098-222.098 0-122.66 99.438-222.1 222.098-222.1s222.098 99.44 222.098 222.1c0 122.662-99.436 222.098-222.098 222.098zM222.098 260.738c-103.624 0-187.93 84.29-187.93 187.928 0 103.61 84.304 187.93 187.93 187.93 103.624 0 187.93-84.322 187.93-187.93 0.002-103.638-84.306-187.928-187.93-187.928zM249.244 492.746c-7.974 5.106-17.384 8.142-27.562 8.142-28.33 0-51.254-22.924-51.254-51.252 0-28.298 22.924-51.256 51.254-51.256 9.51 0 18.318 2.774 25.958 7.306v-0.232l75.542 44.182-73.942 43.21 0.004-0.1zM230.192 435.084c-2.804-1.668-5.672-2.538-8.506-2.538-9.426 0-17.086 7.676-17.086 17.086 0 9.442 7.66 17.084 17.086 17.084 3.218 0 6.288-0.9 9.144-2.736l23.156-14.784-23.794-14.112z" />
<glyph unicode="&#xe643;" glyph-name="cloud" horiz-adv-x="905" d="M469.844 696.358c116.004 0 217.808-82.252 242.102-195.586l5.44-25.342 25.862-1.602c71.806-4.472 128.066-64.286 128.066-136.176 0-75.114-60.916-136.274-135.946-136.676-0.784 0.050-1.548 0.098-2.334 0.118l-34.902 0.618v-0.734l-494.002 0.050c-93.714 0.466-169.96 77.098-169.96 170.808 0 94.202 76.628 170.848 170.828 170.848 2.986 0 5.922-0.236 8.86-0.436l2.552-0.182 22.49-1.484 10.212 20.088c42.592 83.702 127.164 135.688 220.732 135.688zM469.844 730.528c-109.734 0-204.618-62.832-251.18-154.362-4.54 0.302-9.058 0.684-13.664 0.684-113.218 0-204.998-91.78-204.998-205.016 0-112.88 91.228-204.41 203.962-204.978v-0.048l528.332 0.118c0.786-0.016 1.552-0.118 2.338-0.118 94.328 0 170.842 76.478 170.842 170.846 0 90.726-70.806 164.724-160.116 170.28-27.262 127.194-140.21 222.594-275.516 222.594v0z" />
<glyph unicode="&#xe644;" glyph-name="habbo" horiz-adv-x="768" d="M753.6 776l-153.6 147.2c-25.6 22.4-35.2 36.8-62.4 36.8h-507.2c-25.6 0-25.6-25.6-25.6-25.6v-787.2c0-25.6 25.6-52.8 25.6-52.8l132.8-131.2c25.6-25.6 25.6-25.6 52.8-25.6h513.6c0 0 0 0 0 0s0 0 0 0v0c0 0 0 0 0 0 3.2 0 8 0 11.2 1.6 12.8 4.8 19.2 16 19.2 28.8v785.6c3.2 8 0 16-6.4 22.4zM57.6 198.4v683.2c0 25.6 0 25.6 27.2 25.6h153.6c27.2 0 27.2 0 27.2-25.6v-209.6c0-25.6 6.4-25.6 33.6-25.6s33.6 0 33.6 25.6v209.6c0 25.6 0 25.6 27.2 25.6h153.6c27.2 0 27.2 0 27.2-25.6v-683.2c0-25.6 0-25.6-27.2-25.6h-153.6c-27.2 0-27.2 0-27.2 25.6v209.6c0 25.6-6.4 25.6-33.6 25.6s-33.6 0-33.6-25.6v-209.6c0-25.6 0-25.6-27.2-25.6h-153.6c-27.2 0-27.2 0-27.2 25.6zM390.4-11.2h-160c-12.8 0-12.8 0-27.2 12.8l-107.2 105.6c-12.8 12.8-12.8 12.8 0 12.8h160c12.8 0 12.8 0 27.2-12.8l105.6-105.6c14.4-12.8 14.4-12.8 1.6-12.8zM656-11.2h-160c-12.8 0-12.8 0-27.2 12.8l-107.2 105.6c-12.8 12.8-12.8 12.8 0 12.8h160c12.8 0 12.8 0 27.2-12.8l56-54.4 60.8-62.4c0-1.6-3.2-1.6-9.6-1.6zM708.8 40l-118.4 120v686.4l118.4-112v-694.4z" />
<glyph unicode="&#xe645;" glyph-name="cloud-wind" horiz-adv-x="991" d="M546.708 286.396l-342.578 0.048c-93.714 0.466-169.96 77.102-169.96 170.812 0 94.198 76.628 170.844 170.828 170.844 2.986 0 5.922-0.232 8.858-0.432l2.552-0.166 22.49-1.502 10.21 20.086c42.596 83.704 127.166 135.692 220.73 135.692 116.004 0 217.828-82.252 242.102-195.586l5.442-25.326 25.862-1.62c31.128-1.936 59.16-14.432 81.084-33.668h46.684c-29.166 38.64-74.28 64.584-125.648 67.772-27.266 127.2-140.216 222.6-275.524 222.6-109.73 0-204.614-62.832-251.178-154.362-4.538 0.3-9.060 0.684-13.664 0.684-113.218 0-204.998-91.78-204.998-205.014 0-112.886 91.23-204.412 203.964-204.98v-0.050h342.744c37.668 0 68.336-30.646 68.336-68.336s-30.668-68.34-68.336-68.34v-34.168c56.624 0 102.508 45.88 102.508 102.51 0 56.606-45.888 102.502-102.508 102.502zM615.044 354.734h-273.154v-34.166h273.15c56.626 0 102.506 45.892 102.506 102.502 0 56.628-45.876 102.51-102.506 102.51v-34.168c37.672 0 68.34-30.648 68.34-68.342 0.002-37.692-30.664-68.336-68.336-68.336zM837.14 457.242c28.264 0 51.254-22.994 51.254-51.256 0-28.264-22.99-51.252-51.254-51.252-0.732 0-1.42 0.184-2.15 0.218h-83.070c0.048-0.086 0.148-0.136 0.198-0.218h-0.398v-34.166h93.962v0.864c43.114 4.342 76.882 40.294 76.882 84.554 0 47.186-38.24 85.426-85.426 85.426l0.002-34.17zM905.478 286.396h-222.096v-34.17h154.144c-0.068-0.082-0.132-0.132-0.186-0.216h65.984c0.736 0.034 1.418 0.216 2.154 0.216 28.26 0 51.252-22.988 51.252-51.254 0-28.262-22.992-51.252-51.252-51.252v-34.17c47.182 0 85.422 38.244 85.422 85.422 0 47.184-38.24 85.424-85.422 85.424zM239.184 354.734h68.336v-34.166h-68.336v34.166z" />
<glyph unicode="&#xe646;" glyph-name="hacker-news" d="M0 960v-1024h1024v1024h-1024zM556.8 369.6v-251.2h-91.2v251.2l-224 443.2h105.6l164.8-334.4 169.6 334.4h99.2l-224-443.2z" />
<glyph unicode="&#xe647;" glyph-name="cloud-wind-sun" horiz-adv-x="1025" d="M324.138 909.948h34.168v-136.208h-34.168v136.208zM0 585.576h136.208v-34.168h-136.208v34.168zM184.94 699.913l-96.331 96.331 24.159 24.159 96.331-96.331-24.159-24.159zM497.533 699.857l-24.157 24.157 96.299 96.299 24.157-24.157-96.299-96.299zM580.874 192.398l0.082 0.116-224.316 0.050c-83.104 0.418-150.724 68.358-150.724 151.458 0 83.54 67.954 151.508 151.49 151.508 2.57 0 5.106-0.2 7.642-0.368l2.536-0.182 22.456-1.452 10.196 20.054c38.006 74.708 113.5 121.126 197.022 121.126 101.074 0 189.88-70.024 214.24-167.426h35.288c-24.674 115.188-126.982 201.592-249.528 201.592-37.322 0-72.742-8.024-104.658-22.44-28.482 54.708-85.542 92.148-151.476 92.148-94.348 0-170.844-76.482-170.844-170.83 0-42.028 15.366-80.334 40.542-110.064-24.41-31.428-39.076-70.788-39.076-113.664 0-102.222 82.62-185.124 184.726-185.624v-0.050l224.402-0.118c37.672 0 68.336-30.65 68.336-68.34s-30.664-68.336-68.336-68.336v-34.168c56.624 0 102.508 45.878 102.508 102.504 0 56.61-45.886 102.506-102.508 102.506zM341.122 704.416c52.804 0 98.402-30.298 121.144-74.226-39.258-24.592-71.376-59.596-92.48-101.106-4.12 0.266-8.208 0.618-12.38 0.618-47.25 0-90.244-17.8-123.012-46.864-18.652 23.358-29.948 52.788-29.948 84.92 0 75.346 61.316 136.658 136.676 136.658zM649.21 260.738h-170.644v-34.172h170.644c56.626 0 102.508 45.898 102.508 102.508 0 56.624-45.878 102.508-102.508 102.508v-34.168c37.676 0 68.338-30.652 68.338-68.34 0-37.692-30.662-68.336-68.338-68.336zM786.288 260.738h-0.402v-34.172h93.966v0.87c43.112 4.338 76.88 40.292 76.88 84.554 0 47.18-38.242 85.424-85.426 85.424v-34.172c28.264 0 51.256-22.99 51.256-51.252 0-28.264-22.992-51.252-51.256-51.252-0.73 0-1.42 0.184-2.148 0.214h-83.074c0.052-0.080 0.152-0.148 0.204-0.214zM939.646 192.398h-222.1v-34.168h154.144c-0.064-0.066-0.132-0.132-0.182-0.218h65.982c0.738 0.038 1.42 0.218 2.154 0.218 28.262 0 51.252-22.992 51.252-51.256 0-28.258-22.99-51.252-51.252-51.252v-34.168c47.182 0 85.422 38.238 85.422 85.42 0.002 47.186-38.238 85.424-85.42 85.424zM375.858 260.738h68.338v-34.172h-68.338v34.172z" />
<glyph unicode="&#xe648;" glyph-name="html5" horiz-adv-x="928" d="M12.8 960l83.2-920 368-104 368 104 83.2 920h-902.4zM736 659.2h-432l9.6-115.2h412.8l-32-348.8-230.4-64h-3.2l-232 64-14.4 177.6h112l8-89.6 124.8-33.6 126.4 33.6 14.4 145.6h-388.8l-30.4 342.4h566.4l-11.2-112z" />
<glyph unicode="&#xe649;" glyph-name="cloud-wind-moon" horiz-adv-x="888" d="M443.732 243.736l0.084 0.118-224.32 0.050c-83.102 0.416-150.722 68.354-150.722 151.458 0 83.538 67.954 151.506 151.49 151.506 2.57 0 5.106-0.2 7.642-0.366l2.536-0.184 22.456-1.452 10.196 20.054c38.006 74.71 113.5 121.126 197.022 121.126 101.070 0 189.878-70.024 214.238-167.424h35.286c-24.676 115.186-126.976 201.592-249.524 201.592-30.85 0-60.414-5.506-87.776-15.55-16.018 87.526-92.262 153.928-184.408 153.928-7.058 0-13.998-0.468-20.874-1.218 12.714-19.002 20.138-41.826 20.138-66.384 0-66.036-53.54-119.592-119.592-119.592-24.576 0-47.382 7.424-66.386 20.138-0.75-6.858-1.218-13.814-1.218-20.872 0-63.632 31.75-119.742 80.134-153.726-28.28-32.584-45.532-75.032-45.532-121.578 0-102.226 82.62-185.126 184.726-185.624v-0.050l224.4-0.118c37.668 0 68.336-30.65 68.336-68.34s-30.668-68.336-68.336-68.336v-34.172c56.624 0 102.508 45.882 102.508 102.508 0.002 56.608-45.88 102.508-102.504 102.508zM37.19 640.25c9.944-2.002 20.122-3.022 30.416-3.022 84.79 0 153.76 68.972 153.76 153.762 0 10.292-1.016 20.47-3.018 30.416 63.966-12.898 113.552-65.636 121.944-131.104-46.164-24.676-83.872-63.15-107.646-109.88-4.12 0.266-8.208 0.618-12.378 0.618-43.312 0-83.052-14.95-114.636-39.808-34.656 22.072-60.050 57.408-68.442 99.018zM512.070 312.072h-170.642v-34.168h170.642c56.626 0 102.51 45.896 102.51 102.508 0 56.626-45.88 102.506-102.51 102.506v-34.166c37.676 0 68.336-30.65 68.336-68.34s-30.666-68.34-68.336-68.34zM649.146 312.072h-0.398v-34.168h93.962v0.87c43.114 4.34 76.88 40.292 76.88 84.554 0 47.182-38.24 85.424-85.424 85.424v-34.172c28.264 0 51.254-22.988 51.254-51.252 0-28.262-22.99-51.256-51.254-51.256-0.732 0-1.416 0.186-2.154 0.216h-83.068c0.050-0.080 0.15-0.148 0.202-0.216zM802.506 243.736h-222.102v-34.168h154.144c-0.066-0.068-0.132-0.136-0.186-0.218h65.988c0.73 0.038 1.416 0.218 2.152 0.218 28.26 0 51.252-22.994 51.252-51.256 0-28.264-22.992-51.252-51.252-51.252v-34.168c47.18 0 85.42 38.238 85.42 85.42 0.004 47.184-38.236 85.424-85.416 85.424zM238.718 312.072h68.338v-34.168h-68.338v34.168z" />
<glyph unicode="&#xe64a;" glyph-name="ie" d="M772.8 369.6h248c1.6 17.6 3.2 35.2 3.2 52.8 0 84.8-22.4 163.2-62.4 232 41.6 108.8 40 201.6-16 256-52.8 51.2-192 43.2-350.4-27.2-11.2 1.6-24 1.6-35.2 1.6-216 0-398.4-148.8-448-350.4 68.8 86.4 139.2 150.4 235.2 196.8-8-8-59.2-59.2-67.2-67.2-252.8-252.8-332.8-582.4-246.4-667.2 65.6-65.6 182.4-54.4 318.4 12.8 62.4-32 134.4-49.6 209.6-49.6 203.2 0 376 131.2 438.4 313.6h-251.2c-35.2-64-102.4-107.2-179.2-107.2s-144 43.2-179.2 107.2c-16 28.8-24 62.4-24 96v0h406.4zM366.4 491.2c6.4 102.4 91.2 184 195.2 184s188.8-81.6 195.2-184h-390.4zM944 857.6c35.2-35.2 35.2-100.8 4.8-182.4-52.8 78.4-128 140.8-216 176 94.4 41.6 172.8 46.4 211.2 6.4zM97.6 12.8c-44.8 44.8-32 139.2 27.2 252.8 36.8-100.8 107.2-185.6 196.8-241.6-99.2-44.8-182.4-52.8-224-11.2z" />
<glyph unicode="&#xe64b;" glyph-name="instagram" d="M131.2 960h761.6c72 0 131.2-52.8 131.2-131.2v-761.6c0-78.4-59.2-131.2-131.2-131.2h-761.6c-72 0-131.2 52.8-131.2 131.2v761.6c0 78.4 59.2 131.2 131.2 131.2v0zM745.6 846.4c-25.6 0-46.4-20.8-46.4-46.4v-110.4c0-25.6 20.8-46.4 46.4-46.4h115.2c25.6 0 46.4 20.8 46.4 46.4v110.4c0 25.6-20.8 46.4-46.4 46.4h-115.2zM908.8 526.4h-89.6c8-27.2 12.8-57.6 12.8-88 0-169.6-142.4-308.8-318.4-308.8s-318.4 137.6-318.4 308.8c0 30.4 4.8 60.8 12.8 88h-94.4v-432c0-22.4 17.6-40 40-40h713.6c22.4 0 40 17.6 40 40l1.6 432zM513.6 649.6c-113.6 0-206.4-89.6-206.4-200s92.8-198.4 206.4-198.4c113.6 0 206.4 89.6 206.4 200s-92.8 198.4-206.4 198.4z" />
<glyph unicode="&#xe64c;" glyph-name="cloud-sun" horiz-adv-x="992" d="M846.78 381.796c-24.676 115.188-126.98 201.592-249.524 201.592-37.324 0-72.746-8.026-104.68-22.44-28.462 54.708-85.522 92.144-151.458 92.144-94.348 0-170.844-76.478-170.844-170.828 0-42.028 15.35-80.334 40.542-110.066-24.392-31.432-39.076-70.792-39.076-113.668 0-102.222 82.62-185.126 184.726-185.624v-0.050l478.482 0.102c0.714-0.020 1.4-0.102 2.12-0.102 85.442 0 154.726 69.256 154.726 154.728 0.004 82.17-64.128 149.174-145.014 154.212zM341.12 618.928c52.822 0 98.402-30.298 121.16-74.228-39.274-24.608-71.374-59.594-92.496-101.106-4.122 0.27-8.208 0.618-12.38 0.618-47.25 0-90.226-17.788-123.010-46.864-18.654 23.34-29.948 52.788-29.948 84.92 0 75.346 61.312 136.66 136.674 136.66zM837.754 107.026c-0.648 0.050-1.316 0.066-2.002 0.086l-34.968 0.716v-0.802l-444.148 0.050c-83.102 0.4-150.722 68.356-150.722 151.458 0 83.54 67.954 151.508 151.49 151.508 2.57 0 5.106-0.202 7.642-0.368l2.536-0.184 22.456-1.454 10.21 20.054c37.99 74.712 113.486 121.126 197.008 121.126 103.554 0 194.434-73.426 216.124-174.584l5.422-25.328 25.86-1.622c63.352-3.954 112.97-56.708 112.97-120.106 0-66.24-53.708-120.166-119.878-120.55zM324.136 824.458h34.17v-136.208h-34.17v136.208zM0 500.086h136.208v-34.168h-136.208v34.168zM184.94 614.427l-96.331 96.331 24.157 24.157 96.331-96.331-24.157-24.157zM497.561 614.378l-24.156 24.156 96.299 96.299 24.156-24.156-96.299-96.299z" />
<glyph unicode="&#xe64d;" glyph-name="cloud-moon" horiz-adv-x="854" d="M709.204 433.35c-24.674 115.188-126.98 201.596-249.526 201.596-30.732 0-60.162-5.472-87.442-15.45-16.216 87.274-92.33 153.426-184.308 153.426-7.058 0-13.998-0.468-20.872-1.218 12.712-19.004 20.138-41.828 20.138-66.386 0-66.036-53.538-119.592-119.59-119.592-24.576 0-47.382 7.424-66.386 20.138-0.75-6.858-1.218-13.814-1.218-20.872 0-63.416 31.516-119.376 79.632-153.41-28.248-32.582-45.464-74.976-45.464-121.494 0-102.22 82.62-185.124 184.726-185.626v-0.046l478.482 0.098c0.718-0.016 1.4-0.098 2.122-0.098 85.438 0 154.728 69.256 154.728 154.726-0.004 82.166-64.136 149.166-145.022 154.208zM37.188 554.578c9.942-2.002 20.122-3.020 30.416-3.020 84.788 0 153.76 68.972 153.76 153.76 0 10.294-1.018 20.47-3.020 30.416 63.784-12.864 113.252-65.334 121.878-130.52-46.348-24.676-84.188-63.2-108.012-110.066-4.122 0.268-8.208 0.618-12.378 0.618-43.346 0-83.122-14.964-114.72-39.874-34.372 22.106-59.564 57.292-67.924 98.686zM700.178 158.58c-0.648 0.050-1.316 0.066-2.002 0.082l-34.968 0.718v-0.8l-444.148 0.050c-83.104 0.396-150.724 68.354-150.724 151.458 0 83.538 67.954 151.51 151.492 151.51 2.57 0 5.104-0.202 7.64-0.368l2.538-0.184 22.456-1.45 10.21 20.052c37.99 74.712 113.486 121.126 197.006 121.126 103.556 0 194.436-73.426 216.124-174.584l5.424-25.328 25.862-1.618c63.35-3.954 112.964-56.708 112.964-120.11 0-66.248-53.704-120.172-119.874-120.554z" />
<glyph unicode="&#xe64e;" glyph-name="joomla" d="M265.6 683.2c33.6 33.6 86.4 33.6 118.4 0l8-8 100.8 100.8-6.4 8c-57.6 57.6-139.2 78.4-212.8 60.8-11.2 65.6-67.2 115.2-136 115.2-75.2 0-136-60.8-136-137.6 0-65.6 44.8-120 107.2-134.4-22.4-76.8-4.8-164.8 57.6-225.6l227.2-227.2 100.8 100.8-228.8 228.8c-32 32-32 84.8 0 118.4zM1022.4 822.4c0 75.2-60.8 137.6-137.6 137.6-68.8 0-126.4-51.2-136-118.4-75.2 22.4-163.2 3.2-224-57.6l-227.2-227.2 100.8-100.8 227.2 227.2c33.6 33.6 86.4 33.6 118.4 0s32-86.4 0-118.4l-8-8 100.8-100.8 8 8c60.8 60.8 80 147.2 57.6 224 68.8 8 120 65.6 120 134.4zM905.6 209.6c17.6 75.2-1.6 156.8-60.8 214.4l-225.6 227.2-100.8-100.8 227.2-228.8c33.6-33.6 33.6-86.4 0-118.4-32-33.6-86.4-33.6-118.4 0l-8 8-100.8-100.8 8-8c60.8-62.4 150.4-80 227.2-56 12.8-62.4 67.2-110.4 134.4-110.4 75.2 0 137.6 60.8 137.6 137.6-1.6 68.8-52.8 126.4-120 136zM612.8 432l-227.2-228.8c-32-32-86.4-33.6-118.4 0-33.6 33.6-33.6 86.4 0 118.4l8 8-102.4 102.4-8-8c-59.2-59.2-78.4-142.4-59.2-217.6-60.8-14.4-105.6-68.8-105.6-132.8 0-76.8 60.8-137.6 137.6-137.6 65.6 0 120 44.8 132.8 105.6 75.2-19.2 156.8 1.6 216 59.2l227.2 227.2-100.8 104z" />
<glyph unicode="&#xe64f;" glyph-name="jsfiddle" d="M899.2 480c0 6.4 1.6 11.2 1.6 17.6 0 166.4-136 299.2-304 299.2-121.6 0-225.6-70.4-275.2-171.2-24 17.6-52.8 28.8-86.4 28.8-78.4 0-140.8-62.4-140.8-137.6 0-14.4 1.6-28.8 6.4-41.6-60.8-33.6-100.8-99.2-100.8-172.8 0-110.4 91.2-201.6 203.2-203.2h609.6c3.2 0 8 0 11.2 0 112 0 201.6 89.6 201.6 198.4-1.6 81.6-52.8 152-126.4 182.4zM275.2 251.2c-20.8 19.2-33.6 41.6-38.4 67.2-1.6 9.6-3.2 17.6-3.2 27.2 0 38.4 14.4 68.8 41.6 92.8s62.4 36.8 104 36.8c43.2 0 84.8-16 121.6-49.6 9.6-8 17.6-17.6 25.6-27.2l46.4-54.4c8-11.2 16-20.8 25.6-28.8 24-20.8 49.6-32 72-32 19.2 0 33.6 6.4 46.4 17.6 11.2 11.2 17.6 22.4 19.2 36.8v6.4c0 6.4-1.6 12.8-3.2 17.6-3.2 9.6-8 17.6-16 25.6-12.8 11.2-28.8 17.6-46.4 17.6-24 0-46.4-8-72-32l-41.6 48-4.8 6.4c36.8 35.2 72 48 120 48 43.2 0 78.4-12.8 104-36.8v0c27.2-24 40-56 40-94.4 0-9.6-1.6-19.2-3.2-27.2-4.8-25.6-17.6-48-38.4-67.2s-44.8-30.4-73.6-35.2c-9.6-1.6-19.2-1.6-30.4-1.6-44.8 0-86.4 16-121.6 48-9.6 8-19.2 17.6-27.2 28.8l-41.6 56c-8 11.2-16 20.8-25.6 28.8-24 20.8-49.6 32-72 32-6.4 0-12.8-1.6-19.2-3.2-9.6-3.2-19.2-8-27.2-14.4-9.6-9.6-16-19.2-17.6-30.4 0-3.2-1.6-8-1.6-12.8 0-16 6.4-30.4 17.6-43.2l1.6-1.6c12.8-11.2 28.8-17.6 48-17.6 24 0 46.4 8 72 32l41.6-48 4.8-4.8c-36.8-35.2-73.6-49.6-120-49.6-44.8 1.6-80 14.4-107.2 38.4z" />
<glyph unicode="&#xe650;" glyph-name="degree-farenheit" horiz-adv-x="408" d="M68.338 705.968c-37.74 0-68.338-30.598-68.338-68.338 0-37.756 30.598-68.338 68.338-68.338 37.774 0 68.338 30.582 68.338 68.338 0 37.74-30.564 68.338-68.338 68.338zM68.338 603.462c-18.836 0-34.168 15.332-34.168 34.168s15.334 34.168 34.168 34.168c18.836 0 34.17-15.332 34.17-34.168s-15.332-34.168-34.17-34.168zM407.892 567.224v34.168h-239.182v-410.024h34.17v205.008h136.674v34.166h-136.674v136.682z" />
<glyph unicode="&#xe651;" glyph-name="degree-celcius" horiz-adv-x="444" d="M68.338 704.934c-37.74 0-68.338-30.6-68.338-68.338 0-37.756 30.598-68.338 68.338-68.338 37.772 0 68.338 30.582 68.338 68.338 0 37.738-30.566 68.338-68.338 68.338zM68.338 602.426c-18.836 0-34.168 15.334-34.168 34.17s15.332 34.168 34.168 34.168 34.168-15.332 34.168-34.168-15.332-34.17-34.168-34.17zM307.518 226.566c-75.342 0-136.658 61.316-136.658 136.66v68.372c0 75.346 61.316 136.662 136.658 136.662 46.382 0 87.394-23.276 112.118-58.71l24.428 24.424c-31.164 41.496-80.63 68.456-136.542 68.456-94.346 0-170.826-76.496-170.826-170.83v-68.374c0-94.33 76.48-170.826 170.826-170.826 55.912 0 105.378 26.978 136.542 68.47l-24.428 24.426c-24.706-35.436-65.72-58.73-112.118-58.73z" />
<glyph unicode="&#xe652;" glyph-name="lanyrd" d="M851.2 960h-678.4c-96 0-172.8-76.8-172.8-172.8v-680c0-94.4 76.8-171.2 172.8-171.2h680c94.4 0 171.2 76.8 171.2 172.8v678.4c0 96-76.8 172.8-172.8 172.8zM843.2 152c-113.6-36.8-334.4-110.4-376-120s-83.2-27.2-108.8 41.6c0 0-203.2 603.2-222.4 656-17.6 52.8-35.2 84.8 6.4 102.4 97.6 38.4 198.4 88 217.6 32 16-51.2 195.2-608 195.2-608s209.6 73.6 267.2 89.6 76.8 27.2 92.8-51.2c12.8-80 41.6-104-72-142.4z" />
<glyph unicode="&#xe653;" glyph-name="lastfm" d="M827.2 502.4c-80 24-108.8 36.8-108.8 64 0 44.8 64 54.4 70.4 56 40 6.4 107.2-4.8 124.8-59.2l108.8 33.6c-33.6 108.8-152 150.4-251.2 136-100.8-14.4-168-81.6-168-166.4 0-113.6 110.4-147.2 190.4-169.6 84.8-25.6 113.6-40 113.6-70.4 0-25.6-20.8-38.4-62.4-49.6-81.6-20.8-192 0-220.8 49.6-17.6 28.8-33.6 70.4-49.6 112-48 128-115.2 302.4-307.2 302.4-99.2-1.6-267.2-41.6-267.2-315.2 0-113.6 81.6-268.8 264-268.8 153.6 0 179.2 62.4 185.6 73.6l-49.6 97.6c-1.6-1.6-48-59.2-136-59.2-144 0-150.4 155.2-150.4 156.8 0 142.4 46.4 201.6 153.6 201.6 105.6 0 147.2-91.2 200-228.8 17.6-48 35.2-92.8 57.6-129.6 48-78.4 156.8-112 260.8-112 32 0 62.4 3.2 89.6 11.2 91.2 24 147.2 80 147.2 156.8 0 118.4-112 152-195.2 177.6z" />
<glyph unicode="&#xe654;" glyph-name="compass" horiz-adv-x="444" d="M222.098 670.764c-122.644 0-222.098-99.436-222.098-222.098 0-122.66 99.454-222.1 222.098-222.1s222.096 99.44 222.096 222.1c0.002 122.662-99.452 222.098-222.096 222.098zM222.098 260.738c-103.624 0-187.93 84.3-187.93 187.928 0 103.626 84.304 187.93 187.93 187.93 103.624 0 187.93-84.304 187.93-187.93 0.002-103.624-84.306-187.928-187.93-187.928zM149.204 376.188l108.714 36.242 36.236 108.73-108.712-36.254-36.238-108.718zM212.456 457.892l27.676 9.226-9.226-27.682-27.678-9.224 9.228 27.68z" />
<glyph unicode="&#xe655;" glyph-name="compass-west" horiz-adv-x="444" d="M222.098 670.764c-122.644 0-222.098-99.436-222.098-222.098 0-122.66 99.454-222.1 222.098-222.1s222.096 99.44 222.096 222.1c0.002 122.662-99.452 222.098-222.096 222.098zM222.098 260.738c-103.624 0-187.93 84.29-187.93 187.928 0 103.61 84.304 187.93 187.93 187.93 103.624 0 187.93-84.322 187.93-187.93 0.002-103.638-84.306-187.928-187.93-187.928zM221.398 500.888c-9.51 0-18.318-2.77-25.958-7.308v0.234l-75.546-44.178 73.944-43.212v0.1c7.974-5.106 17.384-8.144 27.562-8.144 28.332 0 51.254 22.926 51.254 51.256-0.002 28.294-22.926 51.252-51.256 51.252zM221.398 432.546c-3.218 0-6.29 0.936-9.142 2.77l-23.158 14.786 23.792 14.116c2.804 1.668 5.672 2.502 8.508 2.502 9.428 0 17.084-7.64 17.084-17.084 0-9.414-7.656-17.090-17.084-17.090z" />
<glyph unicode="&#xe656;" glyph-name="like" d="M1024 473.6c0 41.6-46.4 60.8-60.8 60.8-12.8 0-313.6 0-313.6 0s30.4 132.8 32 179.2c1.6 46.4-44.8 145.6-54.4 153.6s-59.2 17.6-81.6-8c1.6-35.2 6.4-144 6.4-144s-73.6-131.2-115.2-196.8c-43.2-65.6-96-97.6-96-97.6v-331.2c0 0 19.2 0 28.8 0s46.4-33.6 73.6-33.6c27.2 0 345.6 0 390.4 0 33.6 0 89.6 3.2 89.6 57.6 0 20.8-12.8 41.6-22.4 44.8 0 4.8 0 6.4 0 6.4s54.4 17.6 54.4 65.6c0 27.2-22.4 40-22.4 40l3.2 12.8c0 0 51.2 19.2 51.2 67.2 0 30.4-20.8 35.2-20.8 35.2l3.2 14.4c3.2 3.2 54.4 24 54.4 73.6zM238.4 465.6h-187.2c-28.8 0-51.2-22.4-51.2-51.2l33.6-340.8c0-28.8 22.4-51.2 51.2-51.2h153.6c28.8 0 51.2 22.4 51.2 51.2v340.8c0 27.2-22.4 51.2-51.2 51.2z" />
<glyph unicode="&#xe657;" glyph-name="compass-south" horiz-adv-x="444" d="M222.098 670.764c-122.662 0-222.098-99.436-222.098-222.098 0-122.66 99.438-222.1 222.098-222.1s222.098 99.44 222.098 222.1c0 122.662-99.436 222.098-222.098 222.098zM222.098 260.738c-103.624 0-187.93 84.29-187.93 187.928 0 103.61 84.304 187.93 187.93 187.93 103.624 0 187.93-84.322 187.93-187.93 0.002-103.638-84.306-187.928-187.93-187.928zM222.098 500.888c-28.296 0-51.254-22.924-51.254-51.252 0-9.51 2.77-18.324 7.308-25.96h-0.234l44.178-75.546 43.214 73.944h-0.104c5.108 7.974 8.142 17.384 8.142 27.566 0.008 28.324-22.92 51.248-51.25 51.248zM236.43 440.49l-14.78-23.158-14.118 23.792c-1.666 2.802-2.518 5.672-2.518 8.508 0 9.442 7.658 17.084 17.084 17.084s17.084-7.64 17.084-17.084c0.002-3.202-0.916-6.272-2.752-9.142z" />
<glyph unicode="&#xe658;" glyph-name="linkedin" d="M17.6-19.2h209.6v628.8h-209.6v-628.8zM763.2 630.4c-91.2 0-145.6-33.6-203.2-107.2v86.4h-208v-628.8h209.6v340.8c0 72 36.8 142.4 120 142.4s132.8-70.4 132.8-140.8v-342.4h209.6v356.8c0 248-168 292.8-260.8 292.8zM123.2 915.2c-68.8 0-123.2-49.6-123.2-110.4s54.4-110.4 123.2-110.4c68.8 0 123.2 49.6 123.2 110.4s-54.4 110.4-123.2 110.4z" />
<glyph unicode="&#xe659;" glyph-name="linux" horiz-adv-x="896" d="M862.4 124.8c-27.2 11.2-49.6 28.8-48 62.4s-24 56-24 56 22.4 73.6 1.6 134.4c-20.8 60.8-89.6 156.8-140.8 230.4-52.8 73.6-8 158.4-56 265.6-48 108.8-171.2 102.4-238.4 56s-46.4-160-43.2-214.4c3.2-54.4 1.6-92.8-4.8-107.2s-49.6-65.6-78.4-108.8c-28.8-43.2-49.6-132.8-70.4-169.6s-6.4-70.4-6.4-70.4-14.4-3.2-25.6-27.2c-11.2-24-33.6-35.2-73.6-43.2s-40-33.6-30.4-62.4c9.6-28.8 0-44.8-11.2-81.6s44.8-48 99.2-54.4c54.4-6.4 115.2-41.6 164.8-48 51.2-6.4 67.2 35.2 67.2 35.2s57.6 12.8 118.4 14.4c60.8 1.6 118.4-12.8 118.4-12.8s11.2-25.6 32-36.8c20.8-11.2 65.6-12.8 94.4 17.6s105.6 68.8 147.2 92.8c41.6 25.6 35.2 60.8 8 72v0zM489.6 827.2c27.2 0 49.6-27.2 49.6-60.8 0-24-11.2-44.8-27.2-54.4-4.8 1.6-8 3.2-12.8 4.8 9.6 4.8 16 17.6 16 32 0 19.2-11.2 33.6-25.6 33.6s-25.6-16-25.6-33.6c0-6.4 1.6-14.4 4.8-19.2-8 3.2-16 6.4-22.4 8-3.2 8-4.8 17.6-4.8 27.2-1.6 35.2 20.8 62.4 48 62.4v0zM486.4 699.2c14.4-4.8 28.8-12.8 27.2-22.4s-8-9.6-27.2-20.8c-17.6-11.2-59.2-35.2-72-36.8s-20.8 4.8-33.6 14.4c-14.4 9.6-40 30.4-33.6 41.6 0 0 20.8 16 28.8 24s32 27.2 44.8 25.6c14.4-4.8 51.2-20.8 65.6-25.6v0zM363.2 817.6c20.8 0 38.4-25.6 38.4-57.6 0-6.4 0-11.2-1.6-16-4.8-1.6-11.2-4.8-16-9.6-3.2-1.6-4.8-4.8-6.4-6.4 3.2 6.4 4.8 16 3.2 25.6-3.2 17.6-14.4 30.4-25.6 27.2-11.2-1.6-17.6-17.6-16-35.2 3.2-17.6 14.4-30.4 25.6-28.8 0 0 1.6 0 1.6 0-4.8-4.8-11.2-9.6-16-14.4-16 8-27.2 28.8-27.2 54.4 0 35.2 17.6 60.8 40 60.8v0zM320 12.8c-4.8-22.4-32-40-32-40-24-8-91.2 20.8-121.6 33.6s-108.8 16-118.4 27.2c-9.6 11.2 4.8 36.8 9.6 60.8 3.2 24-8 40-3.2 56 3.2 16 52.8 16 72 27.2s22.4 44.8 38.4 52.8c14.4 9.6 43.2-22.4 54.4-40s54.4-94.4 72-113.6c17.6-16 35.2-40 28.8-64v0zM601.6 235.2c-4.8-22.4-4.8-104-4.8-104s-49.6-68.8-126.4-80c-76.8-11.2-115.2-3.2-115.2-3.2l-43.2 49.6c0 0 33.6 4.8 28.8 38.4s-102.4 80-120 121.6c-17.6 41.6-3.2 112 19.2 147.2s36.8 112 59.2 137.6c22.4 25.6 40 80 32 104 0 0 48-57.6 81.6-48s108.8 65.6 120 56c11.2-9.6 107.2-219.2 116.8-286.4s-6.4-118.4-6.4-118.4-36.8 8-41.6-14.4v0zM846.4 84.8c-14.4-14.4-97.6-46.4-123.2-73.6-24-25.6-56-46.4-76.8-40-19.2 6.4-36.8 33.6-28.8 73.6s16 83.2 14.4 107.2c-1.6 24-6.4 57.6 0 62.4s16 3.2 16 3.2-4.8-46.4 24-59.2c28.8-12.8 68.8 4.8 81.6 17.6s20.8 30.4 20.8 30.4 12.8-6.4 11.2-25.6c-1.6-19.2 8-48 27.2-57.6 20.8-11.2 48-24 33.6-38.4v0z" />
</font>
</defs>
</svg>
